<svg version="1.1" id="Layer_1" xmlns="http://www.w3.org/2000/svg" xmlns:xlink="http://www.w3.org/1999/xlink" x="0px" y="0px"
	 width="100%" viewBox="0 0 512 512" enable-background="new 0 0 512 512" xml:space="preserve">
<path fill="#D26437" opacity="1.000000" stroke="none" 
	d="
M262.000000,513.000000 
	C259.958344,513.000000 257.916656,513.000000 255.361420,512.665771 
	C254.095245,511.261261 253.430481,510.114655 252.576645,509.132385 
	C242.932999,498.038849 237.385239,484.841125 233.391632,471.024109 
	C245.104080,471.260803 256.371918,471.800293 267.638123,471.768494 
	C290.923126,471.702728 308.861969,462.185669 320.228363,441.318695 
	C320.979492,439.939697 322.875488,439.184296 324.617188,438.100098 
	C363.006317,426.329071 396.668579,407.271179 424.540619,378.609009 
	C433.823547,369.062897 440.492157,358.173523 440.195526,344.155640 
	C439.963593,333.194611 439.892639,322.230133 439.782318,310.835388 
	C439.580841,308.587280 439.283325,306.776611 439.122864,304.953918 
	C435.495667,263.759979 426.967224,223.667908 412.241333,184.958786 
	C410.354034,179.997803 408.641418,174.970398 407.142334,169.801514 
	C414.338287,159.253418 421.928467,149.261963 427.983612,138.413742 
	C437.617371,121.154167 443.904694,102.532013 447.377045,83.069130 
	C472.023468,107.367760 491.103851,135.120026 505.733765,166.970245 
	C494.304291,166.970245 484.023193,166.970245 473.302094,166.970245 
	C474.099884,168.829788 474.641418,170.348267 475.387115,171.758804 
	C476.147522,173.197083 477.192841,174.483566 477.968933,175.914871 
	C487.795624,194.038345 495.622681,213.066040 500.328125,233.071014 
	C504.759003,251.908691 507.543854,271.135284 510.979187,290.204041 
	C511.802795,294.775696 512.334229,299.399933 513.000000,304.000000 
	C513.000000,310.354401 513.000000,316.708801 512.642456,323.414276 
	C504.688690,321.162262 497.092499,318.559174 488.848022,315.733948 
	C486.405426,359.613129 479.298920,401.610168 455.527527,439.540222 
	C446.868500,433.860016 438.693604,428.497375 430.620361,423.201447 
	C412.705017,449.887207 391.339355,472.157379 364.324951,488.896973 
	C359.934784,484.482422 355.728027,480.440643 351.750305,476.184753 
	C349.193420,473.449066 347.231171,471.620117 343.787323,475.435455 
	C341.570129,477.891876 338.172852,479.275421 335.326416,481.172760 
	C321.026642,490.704254 305.761932,498.437134 289.741364,504.519562 
	C280.721222,507.944214 271.261627,510.211395 262.000000,513.000000 
z"/>
<path fill="#B44632" opacity="1.000000" stroke="none" 
	d="
M232.946259,471.068298 
	C237.385239,484.841125 242.932999,498.038849 252.576645,509.132385 
	C253.430481,510.114655 254.095245,511.261261 254.923920,512.665771 
	C254.250000,513.000000 253.500000,513.000000 252.212997,512.631592 
	C250.521332,512.156616 249.329254,512.199768 248.217468,511.921783 
	C219.448837,504.727173 193.246368,492.026306 169.340454,474.611725 
	C166.469818,472.520569 165.172256,473.110748 163.219177,475.213531 
	C158.827744,479.941589 154.328079,484.569122 150.006729,489.096924 
	C122.388809,471.839478 100.948471,449.523346 83.393646,423.155121 
	C75.198669,428.525726 66.969719,433.918610 58.622223,439.389160 
	C46.199894,420.812805 38.465519,400.955811 34.163845,380.010345 
	C29.838400,358.949127 27.116100,337.558655 23.669785,316.179047 
	C16.598679,318.618530 8.799339,321.309265 1.000000,324.000000 
	C1.000000,317.645599 1.000000,311.291199 1.386363,304.276917 
	C5.444800,255.541199 16.327240,209.495148 41.106651,166.860062 
	C29.902412,166.860062 19.601738,166.860062 8.576867,166.860062 
	C9.338879,164.936462 9.828800,163.442047 10.503401,162.036240 
	C18.132689,146.137512 26.787361,130.785980 37.716511,116.951546 
	C46.957073,105.254562 57.116661,94.283615 66.992432,83.374214 
	C67.618431,86.369896 68.057732,88.996872 68.634361,91.593346 
	C74.840813,119.539810 87.092041,144.619720 104.340317,167.388336 
	C105.583817,169.029800 106.509003,172.146713 105.806580,173.841843 
	C96.091866,197.285309 88.293503,221.359528 83.692337,246.275162 
	C79.776192,267.481415 77.313026,288.955994 74.152946,310.737549 
	C73.748993,319.966583 72.965096,328.779602 73.161682,337.570740 
	C73.395210,348.014160 74.000572,358.539398 80.455856,367.571503 
	C92.847435,384.909546 108.874199,398.161194 127.169617,409.376038 
	C134.001968,413.464722 140.352493,417.919250 147.316833,420.974701 
	C161.279877,427.100647 175.578400,432.461945 190.010040,438.380127 
	C191.556717,439.704590 193.258209,440.544983 194.036148,441.911224 
	C198.358017,449.501526 203.406647,456.631042 211.015091,460.992401 
	C217.966583,464.977112 225.608566,467.757263 232.946259,471.068298 
z"/>
<path fill="#FFFFFF" opacity="1.000000" stroke="none" 
	d="
M1.000000,324.468658 
	C8.799339,321.309265 16.598679,318.618530 23.669785,316.179047 
	C27.116100,337.558655 29.838400,358.949127 34.163845,380.010345 
	C38.465519,400.955811 46.199894,420.812805 58.622223,439.389160 
	C66.969719,433.918610 75.198669,428.525726 83.393646,423.155121 
	C100.948471,449.523346 122.388809,471.839478 150.006729,489.096924 
	C154.328079,484.569122 158.827744,479.941589 163.219177,475.213531 
	C165.172256,473.110748 166.469818,472.520569 169.340454,474.611725 
	C193.246368,492.026306 219.448837,504.727173 248.217468,511.921783 
	C249.329254,512.199768 250.521332,512.156616 251.837997,512.631592 
	C168.416580,513.000000 84.833168,513.000000 1.000000,513.000000 
	C1.000000,450.312653 1.000000,387.625000 1.000000,324.468658 
z"/>
<path fill="#FFFFFF" opacity="1.000000" stroke="none" 
	d="
M262.468658,513.000000 
	C271.261627,510.211395 280.721222,507.944214 289.741364,504.519562 
	C305.761932,498.437134 321.026642,490.704254 335.326416,481.172760 
	C338.172852,479.275421 341.570129,477.891876 343.787323,475.435455 
	C347.231171,471.620117 349.193420,473.449066 351.750305,476.184753 
	C355.728027,480.440643 359.934784,484.482422 364.324951,488.896973 
	C391.339355,472.157379 412.705017,449.887207 430.620361,423.201447 
	C438.693604,428.497375 446.868500,433.860016 455.527527,439.540222 
	C479.298920,401.610168 486.405426,359.613129 488.848022,315.733948 
	C497.092499,318.559174 504.688690,321.162262 512.642456,323.882690 
	C513.000000,386.937317 513.000000,449.874634 513.000000,513.000000 
	C429.645874,513.000000 346.291595,513.000000 262.468658,513.000000 
z"/>
<path fill="#FFFFFF" opacity="1.000000" stroke="none" 
	d="
M66.869514,82.991341 
	C57.116661,94.283615 46.957073,105.254562 37.716511,116.951546 
	C26.787361,130.785980 18.132689,146.137512 10.503401,162.036240 
	C9.828800,163.442047 9.338879,164.936462 8.576867,166.860062 
	C19.601738,166.860062 29.902412,166.860062 41.106651,166.860062 
	C16.327240,209.495148 5.444800,255.541199 1.386363,303.808533 
	C1.000000,203.089493 1.000000,102.178978 1.000000,1.000000 
	C64.353973,1.000000 127.708328,1.000000 191.353989,1.378012 
	C173.571777,3.476337 156.714493,8.928001 139.422470,18.059477 
	C145.577042,23.764040 150.772003,28.579165 156.439514,33.832279 
	C139.411057,38.122009 123.736656,43.741360 108.760422,52.082390 
	C98.501534,48.978443 89.078392,49.400017 80.228043,55.231010 
	C70.207321,61.833096 66.309570,71.325935 66.869514,82.991341 
z"/>
<path fill="#FFFFFF" opacity="1.000000" stroke="none" 
	d="
M513.000000,303.531342 
	C512.334229,299.399933 511.802795,294.775696 510.979187,290.204041 
	C507.543854,271.135284 504.759003,251.908691 500.328125,233.071014 
	C495.622681,213.066040 487.795624,194.038345 477.968933,175.914871 
	C477.192841,174.483566 476.147522,173.197083 475.387115,171.758804 
	C474.641418,170.348267 474.099884,168.829788 473.302094,166.970245 
	C484.023193,166.970245 494.304291,166.970245 505.733765,166.970245 
	C491.103851,135.120026 472.023468,107.367760 447.350037,82.618706 
	C448.449402,65.914574 436.851776,54.776157 425.960876,51.405472 
	C418.575195,49.119633 411.451477,50.593758 404.043457,51.687958 
	C388.845215,45.095978 373.853302,38.805576 357.785706,32.063820 
	C362.714478,27.413305 367.864502,22.554033 374.044708,16.722715 
	C363.924042,12.971650 354.648041,9.081545 345.081879,6.132688 
	C337.573944,3.818304 329.707306,2.667639 322.000000,1.000000 
	C385.610260,1.000000 449.220490,1.000000 513.000000,1.000000 
	C513.000000,101.687500 513.000000,202.375092 513.000000,303.531342 
z"/>
<path fill="#D26437" opacity="1.000000" stroke="none" 
	d="
M321.531342,1.000000 
	C329.707306,2.667639 337.573944,3.818304 345.081879,6.132688 
	C354.648041,9.081545 363.924042,12.971650 374.044708,16.722715 
	C367.864502,22.554033 362.714478,27.413305 357.785706,32.063820 
	C373.853302,38.805576 388.845215,45.095978 403.780334,51.945805 
	C389.743774,58.549583 375.384735,63.863102 361.899811,70.861046 
	C350.350739,76.854408 339.802917,84.777199 328.379272,91.882782 
	C304.944061,93.034180 284.266724,101.566261 264.569000,112.580132 
	C258.831665,115.788139 254.944595,115.191902 249.208466,112.531601 
	C234.803284,105.850754 219.900314,100.184303 204.974976,94.717041 
	C199.992767,92.892029 194.337402,92.904701 189.051453,91.717529 
	C190.007874,89.396706 190.771042,87.362297 191.817825,85.486122 
	C201.077179,68.890213 211.734497,53.175571 224.602814,39.245094 
	C233.340607,29.786066 243.515869,21.654924 253.488388,12.959027 
	C258.318909,11.985000 262.819733,11.312983 267.071991,9.895378 
	C272.446045,8.103786 277.560791,5.546842 282.897644,3.626460 
	C286.157990,2.453285 289.625519,1.855953 293.000000,0.999999 
	C302.354218,1.000000 311.708466,1.000000 321.531342,1.000000 
z"/>
<path fill="#B44732" opacity="1.000000" stroke="none" 
	d="
M253.048294,12.929943 
	C243.515869,21.654924 233.340607,29.786066 224.602814,39.245094 
	C211.734497,53.175571 201.077179,68.890213 191.817825,85.486122 
	C190.771042,87.362297 190.007874,89.396706 188.802917,91.715797 
	C188.492676,92.073853 188.005417,92.173439 187.647415,92.102264 
	C185.978622,91.365959 184.617035,90.784355 183.364975,90.022675 
	C171.748489,82.955925 160.526810,75.119240 148.444504,68.972443 
	C135.782608,62.530766 122.299995,57.702305 109.176086,52.168762 
	C123.736656,43.741360 139.411057,38.122009 156.439514,33.832279 
	C150.772003,28.579165 145.577042,23.764040 139.422470,18.059477 
	C156.714493,8.928001 173.571777,3.476337 191.822647,1.378012 
	C201.354233,1.000000 210.708450,1.000000 220.695145,1.369701 
	C232.844116,2.796721 242.964447,7.811607 253.048294,12.929943 
z"/>
<path fill="#FFFFFF" opacity="1.000000" stroke="none" 
	d="
M253.488388,12.959028 
	C242.964447,7.811607 232.844116,2.796721 221.163803,1.369701 
	C244.687561,1.000000 268.375122,1.000000 292.531342,0.999999 
	C289.625519,1.855953 286.157990,2.453285 282.897644,3.626460 
	C277.560791,5.546842 272.446045,8.103786 267.071991,9.895378 
	C262.819733,11.312983 258.318909,11.985000 253.488388,12.959028 
z"/>
<path fill="#FFC850" opacity="1.000000" stroke="none" 
	d="
M188.005417,92.173439 
	C188.005417,92.173439 188.492676,92.073853 188.741211,92.075584 
	C194.337402,92.904701 199.992767,92.892029 204.974976,94.717041 
	C219.900314,100.184303 234.803284,105.850754 249.208466,112.531601 
	C254.944595,115.191902 258.831665,115.788139 264.569000,112.580132 
	C284.266724,101.566261 304.944061,93.034180 328.835632,91.921280 
	C336.135010,93.278358 342.764862,94.014275 348.883759,96.188400 
	C353.570099,97.853516 357.611023,101.335136 362.109009,104.298828 
	C378.839661,121.053391 391.724426,140.107834 402.153442,161.309906 
	C403.809570,164.411789 405.328735,167.192780 406.847900,169.973770 
	C408.641418,174.970398 410.354034,179.997803 412.241333,184.958786 
	C426.967224,223.667908 435.495667,263.759979 439.122864,304.953918 
	C439.283325,306.776611 439.580841,308.587280 439.630615,311.135986 
	C436.129608,318.333618 433.780945,325.576080 429.325470,331.127808 
	C411.249359,353.651581 387.491119,368.950378 362.045959,381.450989 
	C361.951447,367.869690 358.827637,364.936707 348.095581,367.800842 
	C336.370056,354.002411 321.238983,348.630981 303.696075,347.883484 
	C300.233917,346.150421 297.075409,343.377808 293.858704,343.308502 
	C276.229645,342.928955 258.586273,343.212280 240.490936,343.177795 
	C233.909317,343.062775 227.778824,343.192566 221.661758,342.963623 
	C216.826431,342.782654 212.906143,344.241974 209.488159,348.068085 
	C191.968201,349.025452 176.861053,354.276001 165.346649,367.995605 
	C155.968414,365.339874 152.010773,368.249542 151.984009,377.440857 
	C151.979675,378.926788 151.954559,380.412628 151.616486,381.785583 
	C142.547943,376.709106 133.801987,371.745605 125.045425,366.584290 
	C125.034843,366.386444 124.984856,365.993378 124.990570,365.550598 
	C125.313065,361.967010 125.629349,358.826141 125.946671,355.685425 
	C128.634888,329.078217 130.619568,302.376587 134.175293,275.885803 
	C139.610168,235.395035 148.130798,195.434982 161.485550,156.795944 
	C169.079498,134.824463 179.085587,113.686668 188.005417,92.173439 
M173.116898,240.713486 
	C161.452057,241.765823 152.507736,248.915756 150.439697,259.786987 
	C149.489838,264.780121 149.677475,270.074646 149.954620,275.199799 
	C150.693726,288.867828 161.868622,298.629639 175.759338,298.087341 
	C188.989441,297.570831 199.090729,286.641785 199.082291,272.120361 
	C199.052200,268.657074 199.235809,265.176270 198.953369,261.733704 
	C197.966019,249.700027 186.257416,239.929153 173.116898,240.713486 
M339.099609,240.548264 
	C326.092316,242.061584 317.407013,249.034637 315.430023,260.397766 
	C314.585510,265.251862 314.788086,270.357758 315.049408,275.321106 
	C315.745880,288.551025 326.991730,298.489777 340.496429,298.113464 
	C353.658691,297.746735 363.865723,287.268555 364.240387,273.207092 
	C366.451691,254.063156 357.125580,241.520386 339.099609,240.548264 
M248.994507,189.499817 
	C248.995758,194.998703 248.958191,200.497955 249.009201,205.996368 
	C249.059921,211.461990 252.552048,215.536957 257.051575,215.500946 
	C261.547821,215.464966 264.968933,211.401260 264.989960,205.895096 
	C265.031982,194.897491 265.006348,183.899628 265.004852,172.901871 
	C265.003387,162.237396 265.089233,151.571793 264.958069,140.908875 
	C264.880585,134.608932 260.398621,130.825439 254.974915,132.311783 
	C250.351074,133.578918 248.969223,137.059753 248.982391,141.509598 
	C249.028717,157.172913 248.996765,172.836456 248.994507,189.499817 
z"/>
<path fill="#F5DBB3" opacity="1.000000" stroke="none" 
	d="
M233.391617,471.024109 
	C225.608566,467.757263 217.966583,464.977112 211.015091,460.992401 
	C203.406647,456.631042 198.358017,449.501526 194.036148,441.911224 
	C193.258209,440.544983 191.556717,439.704590 190.296387,438.256653 
	C190.544830,436.587616 190.778534,435.283325 191.387161,434.046021 
	C212.154205,440.946991 231.621292,439.683350 249.843491,427.486694 
	C256.983093,422.707916 257.000488,422.722961 264.375763,427.630157 
	C274.579346,434.419189 285.719757,438.734192 298.060699,437.907288 
	C306.419342,437.347198 314.680878,435.337891 322.932373,434.297516 
	C323.332275,435.791840 323.785614,436.965332 324.238953,438.138855 
	C322.875488,439.184296 320.979492,439.939697 320.228363,441.318695 
	C308.861969,462.185669 290.923126,471.702728 267.638123,471.768494 
	C256.371918,471.800293 245.104080,471.260803 233.391617,471.024109 
z"/>
<path fill="#FAEAC6" opacity="1.000000" stroke="none" 
	d="
M324.617218,438.100128 
	C323.785614,436.965332 323.332275,435.791840 323.193359,434.080200 
	C329.725983,429.435028 336.506775,425.966766 342.045776,421.088501 
	C353.744812,410.785034 359.552948,397.091949 362.061462,381.896790 
	C387.491119,368.950378 411.249359,353.651581 429.325470,331.127808 
	C433.780945,325.576080 436.129608,318.333618 439.598450,311.567810 
	C439.892639,322.230133 439.963593,333.194611 440.195526,344.155640 
	C440.492157,358.173523 433.823547,369.062897 424.540619,378.609009 
	C396.668579,407.271179 363.006317,426.329071 324.617218,438.100128 
z"/>
<path fill="#EBAE4B" opacity="1.000000" stroke="none" 
	d="
M407.142334,169.801514 
	C405.328735,167.192780 403.809570,164.411789 402.472290,161.207657 
	C403.747131,159.561676 405.130005,158.495438 405.888092,157.091766 
	C413.236389,143.485016 420.857300,130.005219 427.615326,116.107414 
	C431.842773,107.413780 434.274048,98.092888 432.161133,88.053902 
	C429.084839,73.437874 420.809265,68.780296 407.759491,75.800568 
	C396.354462,81.936020 385.557220,89.204063 374.516541,96.012398 
	C370.288239,98.619835 366.129456,101.340019 361.938995,104.008827 
	C357.611023,101.335136 353.570099,97.853516 348.883759,96.188400 
	C342.764862,94.014275 336.135010,93.278358 329.268616,91.885162 
	C339.802917,84.777199 350.350739,76.854408 361.899811,70.861046 
	C375.384735,63.863102 389.743774,58.549583 403.986694,52.247391 
	C411.451477,50.593758 418.575195,49.119633 425.960876,51.405472 
	C436.851776,54.776157 448.449402,65.914574 447.041626,82.489578 
	C443.904694,102.532013 437.617371,121.154167 427.983612,138.413742 
	C421.928467,149.261963 414.338287,159.253418 407.142334,169.801514 
z"/>
<path fill="#EBAF4B" opacity="1.000000" stroke="none" 
	d="
M187.647415,92.102264 
	C179.085587,113.686668 169.079498,134.824463 161.485550,156.795944 
	C148.130798,195.434982 139.610168,235.395035 134.175293,275.885803 
	C130.619568,302.376587 128.634888,329.078217 125.946671,355.685425 
	C125.629349,358.826141 125.313065,361.967010 124.674835,365.427887 
	C118.687737,361.655945 112.770378,357.867126 107.405159,353.413239 
	C93.132179,341.564697 79.137459,329.398590 74.207039,310.311859 
	C77.313026,288.955994 79.776192,267.481415 83.692337,246.275162 
	C88.293503,221.359528 96.091866,197.285309 105.806580,173.841843 
	C106.509003,172.146713 105.583817,169.029800 104.340317,167.388336 
	C87.092041,144.619720 74.840813,119.539810 68.634361,91.593346 
	C68.057732,88.996872 67.618431,86.369896 66.992432,83.374214 
	C66.309570,71.325935 70.207321,61.833096 80.228043,55.231010 
	C89.078392,49.400017 98.501534,48.978443 108.760422,52.082394 
	C122.299995,57.702305 135.782608,62.530766 148.444504,68.972443 
	C160.526810,75.119240 171.748489,82.955925 183.364975,90.022675 
	C184.617035,90.784355 185.978622,91.365959 187.647415,92.102264 
M111.246185,78.199997 
	C107.926636,76.661308 104.694031,74.884926 101.269783,73.632477 
	C93.703156,70.864891 87.440849,73.475304 84.120605,80.917038 
	C81.364326,87.094734 80.362671,93.566238 81.559631,100.402733 
	C84.324402,116.193748 92.861694,129.476410 99.994186,143.352127 
	C103.059303,149.315094 106.835808,154.912384 110.856354,161.622528 
	C113.148460,157.732162 114.825966,155.102646 116.292290,152.360229 
	C124.809868,136.430237 134.678635,121.489601 147.682907,108.787338 
	C151.600388,104.960838 151.543228,104.023590 146.786057,100.932129 
	C135.200546,93.403229 123.516594,86.025848 111.246185,78.199997 
z"/>
<path fill="#F5DBB3" opacity="1.000000" stroke="none" 
	d="
M74.152946,310.737549 
	C79.137459,329.398590 93.132179,341.564697 107.405159,353.413239 
	C112.770378,357.867126 118.687737,361.655945 124.669113,365.870667 
	C124.984856,365.993378 125.034843,366.386444 125.031326,367.070679 
	C125.673691,381.539642 126.319557,395.324341 126.965424,409.109070 
	C108.874199,398.161194 92.847435,384.909546 80.455856,367.571503 
	C74.000572,358.539398 73.395210,348.014160 73.161682,337.570740 
	C72.965096,328.779602 73.748993,319.966583 74.152946,310.737549 
z"/>
<path fill="#FAEAC7" opacity="1.000000" stroke="none" 
	d="
M127.169617,409.376038 
	C126.319557,395.324341 125.673691,381.539642 125.041916,367.268524 
	C133.801987,371.745605 142.547943,376.709106 151.717972,382.175354 
	C152.309723,383.320557 152.520584,383.955170 152.638840,384.606628 
	C156.616669,406.519836 168.332153,422.618927 188.491882,432.395264 
	C189.379318,432.825562 190.174225,433.446716 191.012222,433.979004 
	C190.778534,435.283325 190.544830,436.587616 190.024780,438.015411 
	C175.578400,432.461945 161.279877,427.100647 147.316833,420.974701 
	C140.352493,417.919250 134.001968,413.464722 127.169617,409.376038 
z"/>
<path fill="#FAEAC7" opacity="1.000000" stroke="none" 
	d="
M303.972839,348.091827 
	C321.238983,348.630981 336.370056,354.002411 347.947327,368.145264 
	C347.012085,372.614838 345.503479,376.394867 345.148895,380.280243 
	C342.380920,410.609314 308.845276,430.489014 281.085358,418.069794 
	C278.514923,416.919830 275.983398,415.597626 273.635559,414.049438 
	C259.337708,404.621338 254.653549,404.611755 240.172394,414.221100 
	C211.523590,433.231750 172.090958,414.263245 168.826431,380.026886 
	C168.441330,375.988190 166.784668,372.070740 165.717468,368.097107 
	C176.861053,354.276001 191.968201,349.025452 209.429947,348.423584 
	C207.495438,355.507385 208.267059,358.805573 213.495651,363.301758 
	C218.786682,367.851654 224.050461,372.451355 229.568741,376.715332 
	C242.056931,386.365112 255.743835,389.838959 271.372131,383.989197 
	C281.068268,377.234558 290.557281,370.715393 299.688782,363.728973 
	C305.842010,359.021179 306.456696,355.605713 303.972839,348.091827 
z"/>
<path fill="#D5B092" opacity="1.000000" stroke="none" 
	d="
M165.346649,367.995605 
	C166.784668,372.070740 168.441330,375.988190 168.826431,380.026886 
	C172.090958,414.263245 211.523590,433.231750 240.172394,414.221100 
	C254.653549,404.611755 259.337708,404.621338 273.635559,414.049438 
	C275.983398,415.597626 278.514923,416.919830 281.085358,418.069794 
	C308.845276,430.489014 342.380920,410.609314 345.148895,380.280243 
	C345.503479,376.394867 347.012085,372.614838 348.134308,368.441559 
	C358.827637,364.936707 361.951447,367.869690 362.045959,381.450989 
	C359.552948,397.091949 353.744812,410.785034 342.045776,421.088501 
	C336.506775,425.966766 329.725983,429.435028 323.246826,433.759399 
	C314.680878,435.337891 306.419342,437.347198 298.060699,437.907288 
	C285.719757,438.734192 274.579346,434.419189 264.375763,427.630157 
	C257.000488,422.722961 256.983093,422.707916 249.843491,427.486694 
	C231.621292,439.683350 212.154205,440.946991 191.387161,434.046021 
	C190.174225,433.446716 189.379318,432.825562 188.491882,432.395264 
	C168.332153,422.618927 156.616669,406.519836 152.638840,384.606628 
	C152.520584,383.955170 152.309723,383.320557 152.040527,382.288300 
	C151.954559,380.412628 151.979675,378.926788 151.984009,377.440857 
	C152.010773,368.249542 155.968414,365.339874 165.346649,367.995605 
z"/>
<path fill="#E18C46" opacity="1.000000" stroke="none" 
	d="
M362.109009,104.298828 
	C366.129456,101.340019 370.288239,98.619835 374.516541,96.012398 
	C385.557220,89.204063 396.354462,81.936020 407.759491,75.800568 
	C420.809265,68.780296 429.084839,73.437874 432.161133,88.053902 
	C434.274048,98.092888 431.842773,107.413780 427.615326,116.107414 
	C420.857300,130.005219 413.236389,143.485016 405.888092,157.091766 
	C405.130005,158.495438 403.747131,159.561676 402.335327,160.886749 
	C391.724426,140.107834 378.839661,121.053391 362.109009,104.298828 
z"/>
<path fill="#5E5460" opacity="1.000000" stroke="none" 
	d="
M303.696075,347.883484 
	C306.456696,355.605713 305.842010,359.021179 299.688782,363.728973 
	C290.557281,370.715393 281.068268,377.234558 271.195709,383.702515 
	C262.900269,375.258636 255.204926,367.002594 247.355209,358.896057 
	C243.088593,354.489838 240.480286,349.545837 240.947830,343.267883 
	C258.586273,343.212280 276.229645,342.928955 293.858704,343.308502 
	C297.075409,343.377808 300.233917,346.150421 303.696075,347.883484 
z"/>
<path fill="#4D414F" opacity="1.000000" stroke="none" 
	d="
M240.490936,343.177795 
	C240.480286,349.545837 243.088593,354.489838 247.355209,358.896057 
	C255.204926,367.002594 262.900269,375.258636 270.836365,383.739075 
	C255.743835,389.838959 242.056931,386.365112 229.568741,376.715332 
	C224.050461,372.451355 218.786682,367.851654 213.495651,363.301758 
	C208.267059,358.805573 207.495438,355.507385 209.863281,348.436584 
	C212.906143,344.241974 216.826431,342.782654 221.661758,342.963623 
	C227.778824,343.192566 233.909317,343.062775 240.490936,343.177795 
z"/>
<path fill="#4D414F" opacity="1.000000" stroke="none" 
	d="
M364.005554,273.979797 
	C363.865723,287.268555 353.658691,297.746735 340.496429,298.113464 
	C326.991730,298.489777 315.745880,288.551025 315.049408,275.321106 
	C314.788086,270.357758 314.585510,265.251862 315.430023,260.397766 
	C317.407013,249.034637 326.092316,242.061584 339.531921,241.015198 
	C339.966431,243.890671 339.968567,246.299210 339.595642,248.789230 
	C333.937042,250.136017 330.999329,253.163895 331.437927,257.378662 
	C331.957123,262.368103 335.096436,264.841125 339.963989,265.717712 
	C339.967468,266.973999 339.971863,267.804993 339.988190,268.635712 
	C340.115601,275.118500 343.203400,279.464050 349.049194,281.391663 
	C353.553314,282.876862 357.953217,281.062378 361.951294,276.115662 
	C362.569916,275.350250 363.317566,274.689117 364.005554,273.979797 
z"/>
<path fill="#4D414E" opacity="1.000000" stroke="none" 
	d="
M198.906693,273.043152 
	C199.090729,286.641785 188.989441,297.570831 175.759338,298.087341 
	C161.868622,298.629639 150.693726,288.867828 149.954620,275.199799 
	C149.677475,270.074646 149.489838,264.780121 150.439697,259.786987 
	C152.507736,248.915756 161.452057,241.765823 173.557114,241.173325 
	C173.988953,244.005539 173.980576,246.377914 173.616119,248.856232 
	C168.761261,249.828400 166.236053,252.762726 166.303162,257.124481 
	C166.374847,261.782440 169.362442,264.472534 173.979431,265.648346 
	C174.937836,275.020020 178.344543,280.373138 184.692139,281.522278 
	C191.617752,282.776031 195.772614,278.571594 198.906693,273.043152 
z"/>
<path fill="#FFDC64" opacity="1.000000" stroke="none" 
	d="
M248.994507,188.999878 
	C248.996765,172.836456 249.028717,157.172913 248.982391,141.509598 
	C248.969223,137.059753 250.351074,133.578918 254.974915,132.311783 
	C260.398621,130.825439 264.880585,134.608932 264.958069,140.908875 
	C265.089233,151.571793 265.003387,162.237396 265.004852,172.901871 
	C265.006348,183.899628 265.031982,194.897491 264.989960,205.895096 
	C264.968933,211.401260 261.547821,215.464966 257.051575,215.500946 
	C252.552048,215.536957 249.059921,211.461990 249.009201,205.996368 
	C248.958191,200.497955 248.995758,194.998703 248.994507,188.999878 
z"/>
<path fill="#5F5460" opacity="1.000000" stroke="none" 
	d="
M198.994492,272.581757 
	C195.772614,278.571594 191.617752,282.776031 184.692139,281.522278 
	C178.344543,280.373138 174.937836,275.020020 174.359558,265.575500 
	C180.025726,263.908905 183.011002,260.862518 182.559219,256.618591 
	C182.026886,251.617813 178.912277,249.107147 173.972198,248.750290 
	C173.980576,246.377914 173.988953,244.005539 173.984695,241.182037 
	C186.257416,239.929153 197.966019,249.700027 198.953369,261.733704 
	C199.235809,265.176270 199.052200,268.657074 198.994492,272.581757 
z"/>
<path fill="#5F5560" opacity="1.000000" stroke="none" 
	d="
M339.970703,248.707748 
	C339.968567,246.299210 339.966431,243.890671 339.963318,241.018707 
	C357.125580,241.520386 366.451691,254.063156 364.122986,273.593445 
	C363.317566,274.689117 362.569916,275.350250 361.951294,276.115662 
	C357.953217,281.062378 353.553314,282.876862 349.049194,281.391663 
	C343.203400,279.464050 340.115601,275.118500 339.988190,268.635712 
	C339.971863,267.804993 339.967468,266.973999 340.320251,265.598877 
	C345.198029,264.190063 347.755493,261.270996 347.694427,256.872284 
	C347.629059,252.162659 344.553864,249.536270 339.970703,248.707748 
z"/>
<path fill="#E18C46" opacity="1.000000" stroke="none" 
	d="
M111.559235,78.393723 
	C123.516594,86.025848 135.200546,93.403229 146.786057,100.932129 
	C151.543228,104.023590 151.600388,104.960838 147.682907,108.787338 
	C134.678635,121.489601 124.809868,136.430237 116.292290,152.360229 
	C114.825966,155.102646 113.148460,157.732162 110.856354,161.622528 
	C106.835808,154.912384 103.059303,149.315094 99.994186,143.352127 
	C92.861694,129.476410 84.324402,116.193748 81.559631,100.402733 
	C80.362671,93.566238 81.364326,87.094734 84.120605,80.917038 
	C87.440849,73.475304 93.703156,70.864891 101.269783,73.632477 
	C104.694031,74.884926 107.926636,76.661308 111.559235,78.393723 
z"/>
<path fill="#FAFAFA" opacity="1.000000" stroke="none" 
	d="
M339.595642,248.789230 
	C344.553864,249.536270 347.629059,252.162659 347.694427,256.872284 
	C347.755493,261.270996 345.198029,264.190063 340.326660,265.173462 
	C335.096436,264.841125 331.957123,262.368103 331.437927,257.378662 
	C330.999329,253.163895 333.937042,250.136017 339.595642,248.789230 
z"/>
<path fill="#FAFAFA" opacity="1.000000" stroke="none" 
	d="
M173.616119,248.856232 
	C178.912277,249.107147 182.026886,251.617813 182.559219,256.618591 
	C183.011002,260.862518 180.025726,263.908905 174.351837,265.176758 
	C169.362442,264.472534 166.374847,261.782440 166.303162,257.124481 
	C166.236053,252.762726 168.761261,249.828400 173.616119,248.856232 
z"/>
</svg>