<svg version="1.1" id="Layer_1" xmlns="http://www.w3.org/2000/svg" xmlns:xlink="http://www.w3.org/1999/xlink" x="0px" y="0px"
	 width="100%" viewBox="0 0 500 500" enable-background="new 0 0 500 500" xml:space="preserve">
<path fill="#D26539" opacity="1.000000" stroke="none" 
	d="
M501.000000,282.000000 
	C501.000000,293.020905 501.000000,304.041779 500.613190,315.522552 
	C492.611145,313.390167 484.995880,310.797913 477.512115,308.250427 
	C476.975983,314.885376 476.719086,320.998657 475.941467,327.044952 
	C474.545563,337.899506 473.460968,348.852539 471.093384,359.508209 
	C468.413055,371.571533 465.111420,383.589325 460.875885,395.187195 
	C457.057159,405.643799 451.652832,415.525848 446.857788,425.618530 
	C445.531250,428.410645 443.832214,428.670563 441.072815,426.725830 
	C434.372437,422.003632 427.371552,417.707855 420.579803,413.297516 
	C403.164825,439.178406 382.397736,461.067902 355.439880,477.557861 
	C350.081909,471.855927 344.959045,466.404236 339.725281,460.834503 
	C336.644073,463.223267 334.061279,465.456970 331.256165,467.363556 
	C310.309387,481.600525 287.884796,492.687653 263.274658,499.106415 
	C262.722687,499.250366 262.419312,500.347473 262.000000,501.000000 
	C257.310730,501.000000 252.621490,501.000000 247.591812,500.698944 
	C246.744171,499.008270 246.535767,497.393036 245.683395,496.264038 
	C237.455231,485.365936 231.346603,473.452972 228.428482,460.109985 
	C240.013550,460.302155 251.161606,460.932556 262.296143,460.747772 
	C284.472778,460.379761 301.707397,451.207184 312.525421,431.258392 
	C313.123352,430.155762 314.226013,429.326813 315.493896,428.338257 
	C354.208832,416.733551 388.040497,397.596497 415.814270,368.494019 
	C422.261780,361.738037 428.335388,354.175964 428.959137,344.391754 
	C429.750397,331.979828 429.520660,319.502808 429.807739,306.626648 
	C429.593964,303.733704 429.378601,301.256439 429.001465,298.804047 
	C425.826965,278.159668 423.197906,257.409912 419.277802,236.907349 
	C414.679810,212.859421 406.469147,189.809860 397.627625,166.758423 
	C412.933533,146.984421 424.599030,125.702988 431.796509,102.085312 
	C433.714539,95.791557 435.291138,89.393761 437.347656,83.139877 
	C441.344269,86.552025 445.585052,89.425186 448.584198,93.267563 
	C457.383209,104.540428 466.006317,115.981453 474.072998,127.783989 
	C479.262177,135.376434 483.349152,143.722214 488.025024,152.040863 
	C488.443756,152.565323 488.767670,152.779282 489.056396,152.990112 
	C489.021179,152.986984 489.040131,152.918884 488.930908,153.263123 
	C489.246185,154.068436 489.670685,154.529495 490.059845,154.988388 
	C490.024506,154.986221 490.046326,154.918884 489.922424,155.259201 
	C490.230896,156.063522 490.663330,156.527542 491.060364,156.988770 
	C491.024963,156.985992 491.045837,156.918121 490.924255,157.264404 
	C491.233856,158.068176 491.665070,158.525696 492.060669,158.984802 
	C492.025024,158.986420 492.054535,158.921463 491.885925,159.309464 
	C490.439972,160.449417 489.178223,161.819290 487.882782,161.851883 
	C480.129669,162.046997 472.367401,161.863892 464.612274,162.015762 
	C463.667969,162.034241 462.748108,163.298874 461.893799,164.344345 
	C463.600800,167.317154 465.379883,169.851364 466.838501,172.558258 
	C484.874420,206.029434 494.474518,242.041962 499.061462,279.573120 
	C499.168365,280.447998 500.330231,281.193939 501.000000,282.000000 
z"/>
<path fill="#B54833" opacity="1.000000" stroke="none" 
	d="
M227.985352,460.179565 
	C231.346603,473.452972 237.455231,485.365936 245.683395,496.264038 
	C246.535767,497.393036 246.744171,499.008270 247.125702,500.698944 
	C244.629440,501.000000 242.258896,501.000000 239.638977,500.694458 
	C238.868500,499.756897 238.471207,498.785339 237.807800,498.543396 
	C226.433670,494.395294 214.823776,490.820435 203.677155,486.139709 
	C189.076080,480.008362 175.711761,471.564178 163.034485,461.619232 
	C162.621948,461.600006 162.334808,461.844513 162.033249,462.054626 
	C162.018845,462.020264 162.090546,462.040649 161.746780,461.974304 
	C161.283279,462.302307 161.163544,462.696686 161.032288,463.056000 
	C161.020767,463.020966 161.091385,463.042236 160.752106,462.983521 
	C160.288437,463.313660 160.164047,463.702484 160.030487,464.056335 
	C160.021317,464.021332 160.091278,464.039703 159.751938,463.982574 
	C159.288834,464.314026 159.165085,464.702576 159.031097,465.055847 
	C159.020874,465.020569 159.090683,465.043549 158.745819,464.973602 
	C158.282761,465.299408 158.164551,465.695129 158.033112,466.055359 
	C158.019882,466.019867 158.090881,466.046387 157.746078,465.974609 
	C157.282959,466.298828 157.164658,466.694824 157.033127,467.055359 
	C157.019897,467.019897 157.090866,467.046295 156.745712,466.974670 
	C156.282516,467.298828 156.164459,467.694580 156.032898,468.054871 
	C156.019394,468.019409 156.090347,468.046417 155.745682,467.973389 
	C155.282166,468.297058 155.163315,468.693817 155.032303,469.055481 
	C155.020142,469.020416 155.090759,469.043335 154.748993,468.979034 
	C154.285522,469.306702 154.163818,469.698700 154.031296,470.055573 
	C154.020477,470.020477 154.090622,470.042267 153.745911,469.977783 
	C153.282379,470.305756 153.163559,470.698212 153.032440,471.055420 
	C153.020142,471.020203 153.090790,471.044189 152.747833,470.974548 
	C152.284073,471.299988 152.163254,471.695038 152.031036,472.054932 
	C152.019653,472.019745 152.089569,472.043823 151.743744,471.970764 
	C151.280060,472.294983 151.162201,472.692261 151.031906,473.054504 
	C151.019470,473.019440 151.089874,473.043457 150.746399,472.975403 
	C150.282761,473.301483 150.162582,473.695618 150.031067,474.054718 
	C150.019730,474.019714 150.089737,474.042419 149.745712,473.974731 
	C149.282410,474.301331 149.163116,474.695587 149.031616,475.054688 
	C149.019424,475.019501 149.089615,475.044464 148.743835,474.971191 
	C148.279495,475.295166 148.160934,475.692383 148.028992,476.054565 
	C148.015625,476.019501 148.085571,476.046631 147.663116,475.938843 
	C146.091888,475.870453 144.943130,475.909851 143.483826,475.818787 
	C136.897293,470.818237 130.674545,465.877655 124.334885,461.091888 
	C108.133545,448.861603 95.072029,433.764008 83.972099,416.901245 
	C82.217667,414.235931 80.630882,413.728943 78.041489,415.541412 
	C72.831268,419.188416 67.457436,422.606903 62.323196,426.355408 
	C59.237751,428.608002 56.701412,428.282745 54.810177,425.230438 
	C51.616024,420.075256 48.110546,414.981964 45.845066,409.411621 
	C41.977009,399.900787 38.682747,390.128540 35.659088,380.308563 
	C30.337906,363.026794 27.176796,345.308716 25.978939,327.247498 
	C25.580490,321.239716 24.990580,315.244659 24.466288,308.981995 
	C16.444744,311.380981 8.722371,313.690491 0.999999,316.000000 
	C1.000000,306.645782 1.000000,297.291534 1.373384,287.612915 
	C3.482538,285.513397 4.321193,283.894501 1.000000,283.000000 
	C1.000000,282.555542 1.000000,282.111115 1.361437,281.463104 
	C2.809137,277.467957 4.150078,273.727203 4.919071,269.872314 
	C5.947631,264.716248 6.496904,259.466034 7.317924,254.266678 
	C8.232873,248.472488 9.221805,242.689957 10.528170,236.836639 
	C12.569816,230.485474 14.261827,224.200058 15.964244,217.952698 
	C15.974648,217.990753 15.897560,218.007675 16.256649,217.923126 
	C16.744755,216.876526 16.873772,215.914490 17.024811,214.571777 
	C17.363037,213.268692 17.691967,212.350372 17.993557,211.423187 
	C23.446354,194.659805 30.106174,178.461151 40.415081,163.582611 
	C39.588779,162.844818 38.579876,162.049942 37.549374,162.020874 
	C32.764118,161.885910 27.969465,162.075958 23.184780,161.931229 
	C18.816380,161.799118 14.456456,161.386703 9.979216,160.774353 
	C10.196227,159.009933 10.200028,157.379456 10.908546,156.157623 
	C17.199287,145.309494 23.258577,134.302612 30.077997,123.791428 
	C39.992386,108.509796 50.880245,93.934494 65.167450,82.266701 
	C66.105301,85.595016 66.678856,88.688019 67.428413,91.737755 
	C73.997330,118.464378 85.865685,142.606750 102.727760,164.346451 
	C103.640846,165.523682 104.308441,167.811157 103.794693,169.040237 
	C92.083122,197.059021 83.651222,226.052399 78.569519,255.946091 
	C75.850685,271.939941 74.334656,288.138245 72.248077,304.678589 
	C72.202385,316.725281 71.529335,328.388794 72.430145,339.929443 
	C72.913872,346.126648 74.904572,352.898071 78.286270,358.051331 
	C89.784317,375.572723 105.752525,388.554535 123.644936,399.268127 
	C123.671562,399.263306 123.718185,399.235809 123.838928,399.481964 
	C124.290016,399.866425 124.620361,400.004700 125.164795,400.401428 
	C131.585587,404.226624 137.544907,408.349976 144.051544,411.241882 
	C156.781097,416.899536 169.816116,421.869904 182.993469,427.360535 
	C184.191360,427.792206 185.120453,427.988098 186.325409,428.355347 
	C187.032150,428.548187 187.463043,428.569611 188.095642,428.838013 
	C193.007065,438.677795 199.455704,446.927368 208.828766,452.149628 
	C214.839691,455.498596 221.574844,457.547729 227.985352,460.179565 
z"/>
<path fill="#000000" opacity="1.000000" stroke="none" 
	d="
M262.468628,501.000000 
	C262.419312,500.347473 262.722687,499.250366 263.274658,499.106415 
	C287.884796,492.687653 310.309387,481.600525 331.256165,467.363556 
	C334.061279,465.456970 336.644073,463.223267 339.725281,460.834503 
	C344.959045,466.404236 350.081909,471.855927 355.439880,477.557861 
	C382.397736,461.067902 403.164825,439.178406 420.579803,413.297516 
	C427.371552,417.707855 434.372437,422.003632 441.072815,426.725830 
	C443.832214,428.670563 445.531250,428.410645 446.857788,425.618530 
	C451.652832,415.525848 457.057159,405.643799 460.875885,395.187195 
	C465.111420,383.589325 468.413055,371.571533 471.093384,359.508209 
	C473.460968,348.852539 474.545563,337.899506 475.941467,327.044952 
	C476.719086,320.998657 476.975983,314.885376 477.512115,308.250427 
	C484.995880,310.797913 492.611145,313.390167 500.613190,315.991211 
	C501.000000,377.602997 501.000000,439.205963 501.000000,501.000000 
	C421.645874,501.000000 342.291595,501.000000 262.468628,501.000000 
z"/>
<path fill="#000000" opacity="1.000000" stroke="none" 
	d="
M163.159882,461.882965 
	C175.711761,471.564178 189.076080,480.008362 203.677155,486.139709 
	C214.823776,490.820435 226.433670,494.395294 237.807800,498.543396 
	C238.471207,498.785339 238.868500,499.756897 239.194824,500.694458 
	C159.748779,501.000000 80.497566,501.000000 1.000000,501.000000 
	C1.000000,439.645996 1.000000,378.291656 0.999999,316.468658 
	C8.722371,313.690491 16.444744,311.380981 24.466288,308.981995 
	C24.990580,315.244659 25.580490,321.239716 25.978939,327.247498 
	C27.176796,345.308716 30.337906,363.026794 35.659088,380.308563 
	C38.682747,390.128540 41.977009,399.900787 45.845066,409.411621 
	C48.110546,414.981964 51.616024,420.075256 54.810177,425.230438 
	C56.701412,428.282745 59.237751,428.608002 62.323196,426.355408 
	C67.457436,422.606903 72.831268,419.188416 78.041489,415.541412 
	C80.630882,413.728943 82.217667,414.235931 83.972099,416.901245 
	C95.072029,433.764008 108.133545,448.861603 124.334885,461.091888 
	C130.674545,465.877655 136.897293,470.818237 143.632416,476.174988 
	C145.422867,476.456635 146.754211,476.251617 148.085571,476.046631 
	C148.085571,476.046631 148.015625,476.019501 148.305084,476.006165 
	C148.759583,475.676697 148.924591,475.360565 149.089615,475.044464 
	C149.089615,475.044464 149.019424,475.019501 149.306534,475.003937 
	C149.759003,474.673065 149.924362,474.357727 150.089737,474.042419 
	C150.089737,474.042419 150.019730,474.019714 150.306122,474.004333 
	C150.758301,473.673798 150.924088,473.358643 151.089874,473.043457 
	C151.089874,473.043457 151.019470,473.019440 151.308136,473.006348 
	C151.761063,472.676758 151.925323,472.360291 152.089569,472.043823 
	C152.089569,472.043823 152.019653,472.019745 152.305145,472.003113 
	C152.757355,471.672394 152.924072,471.358307 153.090790,471.044189 
	C153.090790,471.044189 153.020142,471.020203 153.307678,471.004944 
	C153.760345,470.673889 153.925476,470.358063 154.090622,470.042267 
	C154.090622,470.042267 154.020477,470.020477 154.306915,470.005554 
	C154.759155,469.674896 154.924957,469.359131 155.090759,469.043335 
	C155.090759,469.043335 155.020142,469.020416 155.308807,469.008179 
	C155.761765,468.679413 155.926071,468.362915 156.090363,468.046417 
	C156.090347,468.046417 156.019394,468.019409 156.309113,468.007385 
	C156.762833,467.678986 156.926865,467.362640 157.090881,467.046295 
	C157.090866,467.046295 157.019897,467.019897 157.309357,467.007751 
	C157.762833,466.679199 157.926849,466.362793 158.090881,466.046387 
	C158.090881,466.046387 158.019882,466.019867 158.309784,466.007507 
	C158.763351,465.677979 158.927017,465.360748 159.090683,465.043549 
	C159.090683,465.043549 159.020874,465.020569 159.305466,465.002502 
	C159.757141,464.669556 159.924225,464.354645 160.091293,464.039703 
	C160.091278,464.039703 160.021317,464.021332 160.304810,464.003418 
	C160.756012,463.671082 160.923706,463.356659 161.091400,463.042236 
	C161.091385,463.042236 161.020767,463.020966 161.309189,463.007202 
	C161.761917,462.675842 161.926224,462.358246 162.090546,462.040649 
	C162.090546,462.040649 162.018845,462.020264 162.314667,462.021362 
	C162.793610,461.975952 162.976746,461.929443 163.159882,461.882965 
z"/>
<path fill="#000000" opacity="1.000000" stroke="none" 
	d="
M487.930145,151.730347 
	C483.349152,143.722214 479.262177,135.376434 474.072998,127.783989 
	C466.006317,115.981453 457.383209,104.540428 448.584198,93.267563 
	C445.585052,89.425186 441.344269,86.552025 437.288757,82.683319 
	C437.865173,69.101463 432.127380,59.684387 421.104553,52.781410 
	C420.660706,52.310192 420.334778,52.112137 420.010132,51.949093 
	C420.011414,51.984104 420.080109,51.970322 419.979065,51.649822 
	C419.454163,51.248539 419.030273,51.167755 418.567596,51.036430 
	C418.528809,50.985893 418.426117,51.061268 418.164307,50.714455 
	C414.732239,49.921932 411.558350,49.089939 408.392670,49.120285 
	C403.542450,49.166782 398.697876,49.807304 393.498047,50.108772 
	C388.869080,48.005459 384.722107,45.627167 380.290710,44.046120 
	C370.285187,40.476334 360.139130,37.300552 350.029419,33.647705 
	C350.031799,32.908291 350.054932,32.485657 350.046631,32.037605 
	C350.015137,32.012196 350.038574,32.089653 350.308411,32.029999 
	C350.748810,31.660408 350.919373,31.350470 351.054810,31.030022 
	C351.019684,31.019514 351.043243,31.088926 351.315552,31.035179 
	C351.754944,30.669180 351.921967,30.356928 352.054047,30.031902 
	C352.019104,30.019129 352.043152,30.089544 352.313904,30.032600 
	C352.753143,29.664736 352.921600,29.353811 353.054962,29.031382 
	C353.019897,29.019876 353.042999,29.089979 353.313904,29.032745 
	C353.752930,28.664146 353.921021,28.352783 354.054382,28.030750 
	C354.019714,28.020081 354.039093,28.090044 354.307190,28.027496 
	C354.746857,27.656548 354.918488,27.348148 355.055054,27.029709 
	C355.019989,27.019669 355.042419,27.089054 355.313965,27.034245 
	C355.753510,26.668169 355.921509,26.356903 356.054260,26.032320 
	C356.018982,26.019005 356.045410,26.089642 356.316956,26.033775 
	C356.755646,25.665812 356.922760,25.353714 357.054932,25.030809 
	C357.019989,25.020002 357.041565,25.089903 357.313904,25.034599 
	C357.754120,24.666750 357.921997,24.354206 358.054932,24.030817 
	C358.019958,24.019972 358.041656,24.089874 358.313568,24.034794 
	C358.753510,23.667957 358.921539,23.356199 359.054382,23.031841 
	C359.019226,23.019239 359.044403,23.089600 359.315552,23.034061 
	C359.754272,22.667362 359.921875,22.356203 360.054321,22.032089 
	C360.019165,22.019133 360.044678,22.089600 360.315979,22.033289 
	C360.754822,21.665180 360.922333,21.353382 361.054901,21.030807 
	C361.019989,21.020033 361.041229,21.089945 361.313049,21.033617 
	C361.753174,20.665232 361.921539,20.353176 362.054932,20.030575 
	C362.020020,20.020033 362.041229,20.089844 362.312317,20.033840 
	C362.752014,19.667057 362.920654,19.356277 363.045837,19.027512 
	C363.002350,19.009527 363.076782,19.067341 363.422943,18.926172 
	C363.393799,14.969426 360.380371,13.013356 354.837708,13.073324 
	C344.190033,7.563347 333.041534,5.025907 321.743958,2.926653 
	C320.744507,2.740936 319.910736,1.663346 319.000000,0.999996 
	C379.609283,1.000000 440.218597,1.000000 501.000000,1.000000 
	C501.000000,94.354156 501.000000,187.708420 501.000000,281.531342 
	C500.330231,281.193939 499.168365,280.447998 499.061462,279.573120 
	C494.474518,242.041962 484.874420,206.029434 466.838501,172.558258 
	C465.379883,169.851364 463.600800,167.317154 462.127014,163.959015 
	C472.702301,163.215332 483.121246,163.215332 494.112030,163.215332 
	C493.197937,161.307693 492.626221,160.114578 492.054504,158.921478 
	C492.054535,158.921463 492.025024,158.986420 492.027374,158.658844 
	C491.701752,157.860229 491.373779,157.389175 491.045837,156.918121 
	C491.045837,156.918121 491.024963,156.985992 491.023712,156.661560 
	C490.697083,155.864380 490.371704,155.391632 490.046326,154.918884 
	C490.046326,154.918884 490.024506,154.986221 490.024109,154.660172 
	C489.695831,153.862381 489.367981,153.390625 489.040131,152.918884 
	C489.040131,152.918884 489.021179,152.986984 488.968872,152.701035 
	C488.587738,152.186844 488.258942,151.958603 487.930145,151.730347 
z"/>
<path fill="#000000" opacity="1.000000" stroke="none" 
	d="
M10.178537,236.902359 
	C9.221805,242.689957 8.232873,248.472488 7.317924,254.266678 
	C6.496904,259.466034 5.947631,264.716248 4.919071,269.872314 
	C4.150078,273.727203 2.809137,277.467957 1.361437,281.129761 
	C1.000000,187.755676 1.000000,94.511353 1.000000,1.000000 
	C60.353962,1.000000 119.708321,1.000000 179.668427,1.388011 
	C179.606689,2.160420 178.981857,2.674929 178.265335,2.909770 
	C166.844147,6.653118 155.411224,10.360695 143.618225,14.064281 
	C142.480026,14.345632 141.704590,14.639136 140.959183,14.957363 
	C140.989227,14.982083 140.974777,14.905629 140.603836,14.926945 
	C139.095657,15.521726 137.958420,16.095192 136.308685,16.927094 
	C137.864182,18.275982 138.906708,19.180025 139.965881,20.049534 
	C139.982559,20.015001 139.910934,20.042440 139.958420,20.319300 
	C140.322784,20.760454 140.639664,20.924747 140.971008,21.052383 
	C140.985474,21.015728 140.916901,21.054586 140.989532,21.366169 
	C142.023529,22.479576 142.984894,23.281399 143.965179,24.048920 
	C143.984100,24.014618 143.911163,24.043243 143.957489,24.320938 
	C144.321701,24.762192 144.639603,24.925749 144.969025,25.054377 
	C144.980560,25.019447 144.910614,25.042234 144.957718,25.319847 
	C145.322678,25.761431 145.640549,25.925402 145.969360,26.054535 
	C145.980331,26.019699 145.910477,26.041088 145.958923,26.318153 
	C146.324692,26.759981 146.642029,26.924744 146.969727,27.054688 
	C146.980087,27.019869 146.910370,27.040329 146.958710,27.317474 
	C147.324356,27.759628 147.641647,27.924637 147.969574,28.054718 
	C147.980194,28.019789 147.910507,28.041574 147.957321,28.319267 
	C148.321915,28.761133 148.639679,28.925308 148.969131,29.054413 
	C148.980804,29.019341 148.910950,29.043514 148.959778,29.324776 
	C149.334000,29.762449 149.659378,29.918863 149.987457,30.039352 
	C149.990173,30.003428 149.918228,29.999466 150.045456,30.242064 
	C150.731400,30.914482 151.290131,31.344301 152.118835,31.971146 
	C150.546417,33.096058 148.761993,34.169903 146.852295,34.928268 
	C133.969193,40.044308 121.059540,45.093513 107.701424,50.098206 
	C105.832672,49.822243 104.427383,49.504917 103.008232,49.420418 
	C95.062317,48.947323 86.934456,47.371796 79.949547,52.970829 
	C79.983772,52.979248 79.983330,52.908764 79.647141,52.949139 
	C78.514420,53.645168 77.717896,54.300819 76.953079,54.970863 
	C76.984787,54.985249 76.977165,54.916027 76.711380,54.987106 
	C76.351784,55.374195 76.257957,55.690208 76.021690,56.317200 
	C67.734741,63.148895 64.363075,71.736923 64.884766,82.011322 
	C50.880245,93.934494 39.992386,108.509796 30.077997,123.791428 
	C23.258577,134.302612 17.199287,145.309494 10.908546,156.157623 
	C10.200028,157.379456 10.196227,159.009933 9.570113,160.819946 
	C6.911468,163.438553 9.199790,162.988647 10.371120,162.994141 
	C17.302233,163.026611 24.235119,162.922913 31.164139,163.047226 
	C34.187599,163.101456 37.203304,163.588058 40.222530,163.878311 
	C30.106174,178.461151 23.446354,194.659805 17.993557,211.423187 
	C17.691967,212.350372 17.363037,213.268692 16.679224,214.681442 
	C16.173597,216.117065 16.035578,217.062363 15.897560,218.007675 
	C15.897560,218.007675 15.974648,217.990753 15.594408,218.093140 
	C13.535625,224.431137 11.857082,230.666748 10.178537,236.902359 
z"/>
<path fill="#D36538" opacity="1.000000" stroke="none" 
	d="
M318.531342,0.999996 
	C319.910736,1.663346 320.744507,2.740936 321.743958,2.926653 
	C333.041534,5.025907 344.190033,7.563347 355.074951,13.288296 
	C358.136017,15.453627 360.606415,17.260483 363.076782,19.067341 
	C363.076782,19.067341 363.002350,19.009527 362.704224,18.953728 
	C362.284454,19.295231 362.162811,19.692533 362.041199,20.089840 
	C362.041229,20.089844 362.020020,20.020033 361.715637,19.972248 
	C361.287903,20.312956 361.164551,20.701448 361.041229,21.089943 
	C361.041229,21.089945 361.019989,21.020033 360.712646,20.970730 
	C360.285126,21.310820 360.164917,21.700212 360.044678,22.089603 
	C360.044678,22.089600 360.019165,22.019133 359.711121,21.962410 
	C359.283539,22.300325 359.163971,22.694962 359.044403,23.089600 
	C359.044403,23.089600 359.019226,23.019239 358.713837,22.964935 
	C358.286194,23.303713 358.163910,23.696795 358.041656,24.089874 
	C358.041656,24.089874 358.019958,24.019972 357.715485,23.971972 
	C357.287872,24.312616 357.164734,24.701262 357.041565,25.089905 
	C357.041565,25.089903 357.019989,25.020002 356.712341,24.971649 
	C356.284943,25.312078 356.165192,25.700859 356.045410,26.089642 
	C356.045410,26.089642 356.018982,26.019005 355.710083,25.961468 
	C355.281616,26.298973 355.162018,26.694012 355.042419,27.089054 
	C355.042419,27.089054 355.019989,27.019669 354.717621,26.975948 
	C354.289886,27.318169 354.164490,27.704107 354.039093,28.090046 
	C354.039093,28.090044 354.019714,28.020081 353.712189,27.964788 
	C353.284119,28.302990 353.163544,28.696484 353.042999,29.089979 
	C353.042999,29.089979 353.019897,29.019876 352.713837,28.968210 
	C352.286224,29.307543 352.164673,29.698542 352.043152,30.089542 
	C352.043152,30.089544 352.019104,30.019129 351.709717,29.961163 
	C351.281311,30.298439 351.162292,30.693686 351.043274,31.088928 
	C351.043243,31.088926 351.019684,31.019514 350.717194,30.975197 
	C350.289337,31.317137 350.163940,31.703394 350.038574,32.089653 
	C350.038574,32.089653 350.015137,32.012196 349.764709,31.886150 
	C349.692902,32.494896 349.871552,33.229691 350.050232,33.964485 
	C360.139130,37.300552 370.285187,40.476334 380.290710,44.046120 
	C384.722107,45.627167 388.869080,48.005459 393.554871,50.338169 
	C393.964569,50.654499 394.125610,51.099369 393.866333,51.345589 
	C379.481293,57.760151 365.004883,63.250267 351.342194,70.314232 
	C340.667175,75.833488 331.002167,83.306236 320.448914,89.928642 
	C317.534210,90.150902 315.046997,90.261559 312.585541,90.574776 
	C291.432739,93.266449 272.571106,102.186981 253.990036,111.966988 
	C252.341446,112.834694 249.421127,112.939819 247.851730,112.053276 
	C228.167236,100.933662 207.556061,92.557083 184.964569,89.399422 
	C188.183868,83.063072 190.962067,76.815239 194.650131,71.160881 
	C208.944763,49.245033 225.573746,29.324205 246.499969,12.893581 
	C252.537689,13.556437 257.452911,11.912847 262.472717,9.387818 
	C267.945862,6.634776 273.993073,5.031089 279.748291,2.817853 
	C280.314789,2.600001 280.589722,1.624069 281.000000,1.000000 
	C293.354218,1.000000 305.708466,1.000000 318.531342,0.999996 
z"/>
<path fill="#B54733" opacity="1.000000" stroke="none" 
	d="
M246.055588,12.831503 
	C225.573746,29.324205 208.944763,49.245033 194.650131,71.160881 
	C190.962067,76.815239 188.183868,83.063072 184.648376,89.466553 
	C183.886093,89.974808 183.463150,90.054802 182.697342,90.039368 
	C175.283218,85.321404 168.313904,80.533112 161.120316,76.109520 
	C144.093933,65.639374 125.921837,57.606712 107.240219,51.101601 
	C107.705544,50.704666 107.932014,50.434509 108.158493,50.164352 
	C121.059540,45.093513 133.969193,40.044308 146.852295,34.928268 
	C148.761993,34.169903 150.546417,33.096058 152.046143,31.688448 
	C151.108398,30.805637 150.513321,30.402550 149.918228,29.999464 
	C149.918228,29.999466 149.990173,30.003428 150.024033,29.703407 
	C149.675583,29.283428 149.293259,29.163471 148.910950,29.043514 
	C148.910950,29.043514 148.980804,29.019341 149.022461,28.718201 
	C148.679565,28.291897 148.295044,28.166735 147.910507,28.041574 
	C147.910507,28.041574 147.980194,28.019789 148.019440,27.719849 
	C147.675903,27.293381 147.293137,27.166855 146.910370,27.040329 
	C146.910370,27.040329 146.980087,27.019869 147.020355,26.719376 
	C146.677231,26.292952 146.293854,26.167021 145.910477,26.041088 
	C145.910477,26.041088 145.980331,26.019699 146.022690,25.718191 
	C145.680237,25.291868 145.295425,25.167051 144.910614,25.042236 
	C144.910614,25.042234 144.980560,25.019447 145.023743,24.716536 
	C144.681656,24.290163 144.296417,24.166702 143.911163,24.043243 
	C143.911163,24.043243 143.984100,24.014618 144.075256,23.691792 
	C143.083237,22.597506 142.000061,21.826046 140.916901,21.054586 
	C140.916901,21.054586 140.985474,21.015728 141.029495,20.714525 
	C140.685989,20.289696 140.298462,20.166067 139.910934,20.042439 
	C139.910934,20.042440 139.982559,20.015001 140.071106,19.661854 
	C140.431366,17.841013 140.703064,16.373320 140.974762,14.905628 
	C140.974777,14.905629 140.989227,14.982083 141.262543,15.140421 
	C142.350891,14.891318 143.165939,14.483877 143.980988,14.076435 
	C155.411224,10.360695 166.844147,6.653118 178.265335,2.909770 
	C178.981857,2.674929 179.606689,2.160420 180.137085,1.388011 
	C192.687561,1.000000 205.375122,1.000000 218.598053,1.394128 
	C219.409012,2.146966 219.659698,2.796201 219.963776,2.822248 
	C229.630157,3.650278 237.876663,8.148865 246.055588,12.831503 
z"/>
<path fill="#000000" opacity="1.000000" stroke="none" 
	d="
M246.499969,12.893581 
	C237.876663,8.148865 229.630157,3.650278 219.963776,2.822248 
	C219.659698,2.796201 219.409012,2.146966 219.066711,1.394128 
	C239.354233,1.000000 259.708466,1.000000 280.531342,1.000000 
	C280.589722,1.624069 280.314789,2.600001 279.748291,2.817853 
	C273.993073,5.031089 267.945862,6.634776 262.472717,9.387818 
	C257.452911,11.912847 252.537689,13.556437 246.499969,12.893581 
z"/>
<path fill="#000000" opacity="1.000000" stroke="none" 
	d="
M1.000000,283.399994 
	C4.321193,283.894501 3.482538,285.513397 1.373384,287.144226 
	C1.000000,285.933319 1.000000,284.866669 1.000000,283.399994 
z"/>
<path fill="#FEC851" opacity="1.000000" stroke="none" 
	d="
M183.040192,90.134796 
	C183.463150,90.054802 183.886093,89.974808 184.625229,89.827682 
	C207.556061,92.557083 228.167236,100.933662 247.851730,112.053276 
	C249.421127,112.939819 252.341446,112.834694 253.990036,111.966988 
	C272.571106,102.186981 291.432739,93.266449 312.585541,90.574776 
	C315.046997,90.261559 317.534210,90.150902 320.905762,89.956543 
	C327.284332,90.949059 333.061127,91.162956 338.169495,93.120888 
	C343.736664,95.254669 348.683990,99.005806 354.073822,102.339233 
	C369.567322,117.830368 381.755615,135.264679 391.331421,154.575485 
	C391.969116,155.861481 393.089752,156.907959 393.994873,158.443924 
	C395.146912,161.575073 396.289886,164.328140 397.432861,167.081207 
	C406.469147,189.809860 414.679810,212.859421 419.277802,236.907349 
	C423.197906,257.409912 425.826965,278.159668 429.001465,298.804047 
	C429.378601,301.256439 429.593964,303.733704 429.495361,306.731781 
	C427.064636,310.841766 425.022827,314.419464 422.647064,318.069305 
	C421.892426,319.110596 421.471710,320.079742 421.032501,321.023834 
	C421.014008,320.998779 421.059845,321.048279 420.726379,321.095612 
	C419.980682,321.848511 419.568451,322.554077 419.086914,323.552734 
	C418.357239,324.570648 417.696808,325.295441 416.691101,326.057709 
	C413.589020,329.107422 410.832245,332.119659 407.992767,335.413757 
	C407.322876,336.158539 406.735687,336.621429 405.794891,337.097168 
	C404.292786,338.403473 403.144287,339.696869 401.847870,341.258606 
	C400.858582,342.053589 400.017151,342.580261 398.843079,343.121765 
	C398.013092,343.768036 397.515747,344.399475 396.828644,345.281677 
	C395.476318,346.383423 394.313751,347.234406 392.824829,348.107056 
	C391.995331,348.741913 391.492188,349.355103 390.794067,350.223450 
	C389.127869,351.347290 387.656647,352.215973 385.936584,353.163025 
	C385.459839,353.495483 385.231903,353.749542 384.847656,354.230713 
	C384.200226,354.684326 383.709045,354.910828 382.887329,355.140503 
	C382.034393,355.742371 381.512024,356.340973 380.729919,357.119141 
	C379.383636,357.907471 378.297058,358.516266 376.882202,359.131927 
	C376.029205,359.731903 375.504456,360.325012 374.785522,360.980774 
	C374.591339,361.043396 374.185425,361.085236 373.936218,361.163818 
	C373.459137,361.497437 373.231293,361.752411 372.784027,362.260132 
	C370.504181,363.421326 368.443695,364.329803 366.016785,365.201721 
	C364.766357,366.088989 363.882355,367.012756 362.696106,368.049591 
	C361.379608,368.513916 360.365356,368.865204 358.969666,369.186005 
	C356.748932,369.111237 354.909637,369.066956 353.064209,368.689423 
	C353.082306,367.912506 353.106506,367.468903 353.430603,366.946838 
	C353.539093,365.897644 353.347687,364.926819 353.112030,363.645203 
	C353.017883,362.918945 352.967957,362.503448 352.895447,361.719421 
	C351.698425,358.181122 349.413849,356.947662 346.057281,356.944122 
	C343.317139,356.941254 340.577515,356.398224 337.639954,355.985596 
	C337.195465,355.688324 337.018524,355.448608 336.900574,354.796204 
	C335.507263,353.340912 334.124786,352.246796 332.430786,351.092590 
	C331.077515,350.357391 330.035736,349.682373 328.929077,348.676086 
	C328.134674,347.963318 327.405151,347.581818 326.394531,347.169342 
	C325.752625,347.029755 325.391876,346.921143 324.959381,346.472961 
	C322.490509,345.155396 320.093384,344.177399 317.311035,343.164001 
	C313.298309,342.305573 309.670776,341.482574 305.890686,340.335052 
	C301.525238,338.639282 297.312378,337.268066 292.949219,335.527344 
	C291.266022,334.770996 289.734070,334.051910 288.199921,334.047150 
	C264.395905,333.973053 240.591553,333.972961 216.787460,334.030579 
	C215.209534,334.034424 213.633072,334.640717 211.864380,335.055481 
	C211.672836,335.144196 211.253189,335.098145 210.925156,335.090118 
	C210.070328,335.412689 209.543549,335.743317 208.852814,336.341125 
	C207.450516,337.703003 206.212143,338.797729 204.534729,339.887451 
	C187.634491,341.010651 172.947784,346.038696 161.508316,359.046204 
	C151.299576,357.461517 150.014297,358.517700 148.903870,368.852722 
	C148.782822,369.979279 148.284897,371.065399 147.595306,372.120728 
	C146.051498,371.537750 144.855270,371.042114 143.700073,370.464417 
	C138.581451,367.904694 133.474609,365.321381 128.221893,362.468506 
	C127.397087,361.787872 126.713875,361.385315 125.863586,360.757965 
	C125.198158,360.297852 124.699821,360.062561 124.115189,359.538483 
	C123.358971,358.521973 122.689049,357.794220 122.022667,356.634827 
	C122.343925,354.074371 122.785240,351.955658 122.959717,349.815186 
	C124.318619,333.144836 125.152893,316.415649 127.073105,299.811432 
	C129.316223,280.414948 131.887222,261.014374 135.436020,241.822693 
	C138.959351,222.768738 143.796234,203.953888 148.198212,185.067078 
	C154.121719,159.652084 163.098740,135.259689 173.355499,111.320312 
	C176.412552,104.185135 179.802689,97.192657 183.040192,90.134796 
M342.857880,288.317810 
	C343.320496,287.966400 343.783112,287.614990 344.148285,287.236420 
	C344.148285,287.236420 344.162720,287.336517 344.768463,287.248352 
	C345.207977,286.854858 345.647522,286.461334 346.004730,286.014862 
	C346.004730,286.014862 346.064301,286.092560 346.647400,285.928040 
	C347.176544,285.345612 347.705688,284.763184 348.144501,284.128998 
	C348.144501,284.128998 348.117157,284.229462 348.660461,284.051971 
	C348.850220,283.737152 349.039978,283.422333 349.128876,283.144073 
	C349.128876,283.144073 349.188049,283.233582 349.747986,282.973938 
	C350.438538,281.976837 351.129120,280.979736 352.335236,279.496552 
	C353.280273,276.726746 354.225342,273.956970 355.564667,270.442810 
	C355.589691,265.300629 356.131317,260.097504 355.533478,255.028748 
	C354.241730,244.075943 344.580292,235.516510 333.500549,234.865494 
	C332.695679,234.972183 331.890778,235.078873 330.302216,235.060089 
	C329.522980,235.181824 328.743744,235.303543 327.256622,235.307449 
	C325.120667,236.160324 322.984680,237.013199 320.930420,237.892578 
	C320.930420,237.892578 320.916718,237.807785 320.243011,237.886368 
	C318.838318,238.928680 317.433624,239.970993 316.001404,240.996063 
	C316.001404,240.996063 316.011414,241.026566 315.407837,241.237320 
	C314.145508,242.829453 312.883209,244.421600 311.188965,246.421860 
	C311.078613,246.797867 310.968292,247.173859 310.294739,248.035065 
	C306.348572,255.350830 307.085815,263.121765 308.020111,271.657166 
	C308.204620,272.106323 308.389099,272.555450 308.567444,273.699615 
	C309.965515,276.244965 311.363617,278.790314 312.758179,281.182068 
	C312.758179,281.182068 312.611816,281.228699 312.719696,281.817993 
	C313.132507,282.228180 313.545319,282.638367 314.001862,283.004486 
	C314.001862,283.004486 313.946777,283.032227 314.102325,283.536835 
	C314.391449,283.722626 314.680542,283.908447 314.977478,284.021942 
	C314.977478,284.021942 314.910980,284.051483 315.130035,284.603485 
	C315.761688,285.056854 316.393341,285.510223 317.001221,286.001373 
	C317.001221,286.001373 317.036560,285.973480 317.383118,286.564941 
	C323.266571,290.553528 329.509155,292.609863 336.660736,290.373932 
	C336.660736,290.373932 336.906097,290.340210 337.630646,290.314758 
	C338.485229,289.954773 339.339813,289.594788 340.094574,289.242950 
	C340.094574,289.242950 340.133179,289.335419 340.749695,289.327118 
	C341.251984,289.010010 341.754303,288.692902 342.154816,288.422180 
	C342.154816,288.422180 342.266876,288.407715 342.857880,288.317810 
M150.495392,245.313339 
	C150.261642,245.847458 150.027908,246.381577 149.405090,247.256042 
	C149.209793,247.728348 149.014511,248.200668 148.270676,249.181473 
	C144.845795,257.530609 145.221924,266.130096 147.400330,274.562500 
	C148.213547,277.710480 150.903366,280.373657 152.918365,283.224426 
	C152.918365,283.224426 152.735046,283.209686 152.902100,283.715820 
	C153.194077,283.902222 153.486069,284.088623 153.727020,284.124298 
	C153.727020,284.124298 153.730591,284.283386 153.997986,284.877563 
	C155.637497,285.939148 157.276993,287.000732 159.440048,288.573792 
	C164.280945,289.373444 169.166534,291.035461 173.953125,290.787384 
	C183.011612,290.317902 191.300262,282.552002 192.666428,274.693420 
	C196.747360,268.220123 195.373978,251.840057 190.161346,245.839417 
	C190.161346,245.839417 190.276260,245.828491 190.159393,245.168228 
	C189.167740,244.047913 188.176071,242.927582 186.990341,241.969208 
	C186.990341,241.969208 187.189636,241.817230 186.921875,241.213715 
	C183.278427,239.315811 179.634964,237.417908 175.257538,235.279846 
	C174.489853,235.232727 173.722153,235.185608 172.363190,234.720673 
	C167.500153,236.052078 162.637115,237.383469 158.002213,238.992523 
	C158.002213,238.992523 157.772751,238.718002 157.133759,238.804840 
	C156.348648,239.492096 155.563538,240.179367 154.232925,241.104889 
	C153.723541,241.696701 153.214172,242.288513 152.180679,243.109711 
	C151.790512,243.743195 151.400345,244.376678 151.000000,245.000000 
	C151.000000,245.000000 151.010696,245.009140 150.495392,245.313339 
M243.174042,202.863617 
	C243.891357,206.382217 244.670044,209.648331 249.312103,210.023071 
	C255.668564,210.536224 258.936615,207.843338 258.963470,201.098953 
	C259.048889,179.648300 258.960266,158.197006 259.022797,136.746201 
	C259.036011,132.211807 256.373474,130.060059 252.533569,129.167587 
	C246.888351,127.855530 243.035904,131.502014 243.023056,138.130859 
	C242.981827,159.415115 243.036026,180.699570 243.174042,202.863617 
z"/>
<path fill="#F5DBB3" opacity="1.000000" stroke="none" 
	d="
M228.428482,460.109985 
	C221.574844,457.547729 214.839691,455.498596 208.828766,452.149628 
	C199.455704,446.927368 193.007065,438.677795 188.085541,428.442993 
	C187.583176,426.537781 187.292587,425.274475 187.380966,424.056885 
	C206.973450,430.919464 225.471268,429.215698 242.693436,418.417358 
	C252.439560,412.306519 251.175461,413.009583 260.503723,419.047882 
	C268.578369,424.274780 277.530701,427.151001 287.101624,427.941895 
	C296.677032,428.733154 305.965149,427.202637 315.001221,424.452820 
	C315.031830,426.047729 315.062744,427.209076 315.093719,428.370483 
	C314.226013,429.326813 313.123352,430.155762 312.525421,431.258392 
	C301.707397,451.207184 284.472778,460.379761 262.296143,460.747772 
	C251.161606,460.932556 240.013550,460.302155 228.428482,460.109985 
z"/>
<path fill="#FAE9C4" opacity="1.000000" stroke="none" 
	d="
M315.493835,428.338226 
	C315.062744,427.209076 315.031830,426.047729 315.305786,424.290710 
	C318.205872,422.239655 320.853027,420.869110 323.387817,419.315308 
	C340.695770,408.705536 350.655060,393.336609 353.476807,373.065369 
	C355.654510,371.717194 357.502808,370.466858 359.351135,369.216522 
	C360.365356,368.865204 361.379608,368.513916 363.023773,368.020325 
	C364.563538,366.998077 365.473389,366.118164 366.383240,365.238251 
	C368.443695,364.329803 370.504181,363.421326 373.022675,362.166626 
	C373.715607,361.575317 373.950500,361.330261 374.185425,361.085205 
	C374.185425,361.085236 374.591339,361.043396 375.095978,360.951508 
	C376.137238,360.281433 376.673859,359.703247 377.210480,359.125061 
	C378.297058,358.516266 379.383636,357.907471 381.038330,357.082764 
	C382.143646,356.290344 382.680756,355.713806 383.217865,355.137268 
	C383.709045,354.910828 384.200226,354.684326 385.083069,354.133087 
	C385.711639,353.567108 385.948517,353.325867 386.185364,353.084656 
	C387.656647,352.215973 389.127869,351.347290 391.102539,350.175781 
	C392.121033,349.277130 392.636108,348.681274 393.151184,348.085388 
	C394.313751,347.234406 395.476318,346.383423 397.136475,345.225250 
	C398.147980,344.314331 398.661835,343.710632 399.175720,343.106934 
	C400.017151,342.580261 400.858582,342.053589 402.184418,341.215332 
	C403.828735,339.630615 404.988617,338.357483 406.148499,337.084351 
	C406.735687,336.621429 407.322876,336.158539 408.323853,335.334595 
	C411.503906,331.989136 414.270172,329.004700 417.036407,326.020264 
	C417.696808,325.295441 418.357239,324.570648 419.371765,323.427979 
	C420.170532,322.356201 420.615204,321.702240 421.059875,321.048279 
	C421.059845,321.048279 421.014008,320.998779 421.315826,320.875946 
	C422.072083,319.834442 422.526550,318.915802 422.981018,317.997162 
	C425.022827,314.419464 427.064636,310.841766 429.418823,307.158997 
	C429.520660,319.502808 429.750397,331.979828 428.959137,344.391754 
	C428.335388,354.175964 422.261780,361.738037 415.814270,368.494019 
	C388.040497,397.596497 354.208832,416.733551 315.493835,428.338226 
z"/>
<path fill="#EBAE4D" opacity="1.000000" stroke="none" 
	d="
M353.901520,102.051872 
	C348.683990,99.005806 343.736664,95.254669 338.169495,93.120888 
	C333.061127,91.162956 327.284332,90.949059 321.345215,89.938843 
	C331.002167,83.306236 340.667175,75.833488 351.342194,70.314232 
	C365.004883,63.250267 379.481293,57.760151 394.196899,51.407322 
	C402.666534,51.168976 410.546326,51.115124 418.426117,51.061268 
	C418.426117,51.061268 418.528809,50.985893 418.717224,51.321045 
	C419.297119,51.760902 419.688599,51.865612 420.080109,51.970322 
	C420.080109,51.970322 420.011414,51.984104 420.081787,52.242828 
	C420.508942,52.685894 420.865692,52.870235 421.222473,53.054573 
	C432.127380,59.684387 437.865173,69.101463 436.965637,82.587181 
	C435.291138,89.393761 433.714539,95.791557 431.796509,102.085312 
	C424.599030,125.702988 412.933533,146.984421 397.627625,166.758423 
	C396.289886,164.328140 395.146912,161.575073 394.134888,158.119598 
	C402.386658,141.869507 410.797333,126.464058 418.523254,110.722542 
	C423.413574,100.758575 425.040466,90.242653 420.049133,79.522774 
	C416.765045,72.469543 411.690277,69.320786 404.501801,71.849052 
	C398.338165,74.016869 392.436584,77.227180 386.849609,80.674202 
	C375.710571,87.546722 364.867096,94.898216 353.901520,102.051872 
z"/>
<path fill="#FBD2BE" opacity="1.000000" stroke="none" 
	d="
M491.885895,159.309479 
	C492.626221,160.114578 493.197937,161.307693 494.112030,163.215332 
	C483.121246,163.215332 472.702301,163.215332 462.050171,163.600662 
	C462.748108,163.298874 463.667969,162.034241 464.612274,162.015762 
	C472.367401,161.863892 480.129669,162.046997 487.882782,161.851883 
	C489.178223,161.819290 490.439972,160.449417 491.885895,159.309479 
z"/>
<path fill="#FBD2BE" opacity="1.000000" stroke="none" 
	d="
M490.924255,157.264404 
	C491.373779,157.389175 491.701752,157.860229 492.062988,158.657242 
	C491.665070,158.525696 491.233856,158.068176 490.924255,157.264404 
z"/>
<path fill="#FBD2BE" opacity="1.000000" stroke="none" 
	d="
M488.930908,153.263123 
	C489.367981,153.390625 489.695831,153.862381 490.059448,154.662338 
	C489.670685,154.529495 489.246185,154.068436 488.930908,153.263123 
z"/>
<path fill="#FBD2BE" opacity="1.000000" stroke="none" 
	d="
M489.922424,155.259186 
	C490.371704,155.391632 490.697083,155.864380 491.059082,156.664337 
	C490.663330,156.527542 490.230896,156.063522 489.922424,155.259186 
z"/>
<path fill="#FBD2BE" opacity="1.000000" stroke="none" 
	d="
M488.025024,152.040863 
	C488.258942,151.958603 488.587738,152.186844 489.004059,152.704163 
	C488.767670,152.779282 488.443756,152.565323 488.025024,152.040863 
z"/>
<path fill="#EBAF4C" opacity="1.000000" stroke="none" 
	d="
M182.697327,90.039352 
	C179.802689,97.192657 176.412552,104.185135 173.355499,111.320312 
	C163.098740,135.259689 154.121719,159.652084 148.198212,185.067078 
	C143.796234,203.953888 138.959351,222.768738 135.436020,241.822693 
	C131.887222,261.014374 129.316223,280.414948 127.073105,299.811432 
	C125.152893,316.415649 124.318619,333.144836 122.959717,349.815186 
	C122.785240,351.955658 122.343925,354.074371 121.692459,356.520111 
	C113.034576,350.519104 104.380394,344.585449 96.467117,337.789154 
	C85.786888,328.616425 76.883720,317.914948 72.275818,304.244293 
	C74.334656,288.138245 75.850685,271.939941 78.569519,255.946091 
	C83.651222,226.052399 92.083122,197.059021 103.794693,169.040237 
	C104.308441,167.811157 103.640846,165.523682 102.727760,164.346451 
	C85.865685,142.606750 73.997330,118.464378 67.428413,91.737755 
	C66.678856,88.688019 66.105301,85.595016 65.167450,82.266701 
	C64.363075,71.736923 67.734741,63.148895 76.250854,56.215157 
	C76.740692,55.506767 76.858932,55.211395 76.977165,54.916027 
	C76.977165,54.916027 76.984787,54.985249 77.304871,55.044437 
	C78.411072,54.372005 79.197205,53.640385 79.983330,52.908764 
	C79.983330,52.908764 79.983772,52.979248 80.352509,53.029224 
	C89.272163,49.492798 98.092613,49.733597 107.001373,51.228382 
	C125.921837,57.606712 144.093933,65.639374 161.120316,76.109520 
	C168.313904,80.533112 175.283218,85.321404 182.697327,90.039352 
M79.014023,92.561020 
	C79.576790,96.150429 79.376297,100.088913 80.831268,103.270287 
	C88.058357,119.072693 95.655655,134.707977 103.305817,150.312256 
	C104.397255,152.538498 106.489235,154.274200 108.920410,157.203598 
	C119.478966,136.252090 131.758804,117.742455 148.308029,102.100449 
	C138.747467,95.643166 130.147980,89.397385 121.109589,83.869247 
	C113.916054,79.469475 106.393410,75.456940 98.635170,72.174744 
	C91.238304,69.045425 86.843948,70.604965 83.191765,77.541954 
	C80.948242,81.803329 80.359360,86.935829 79.014023,92.561020 
z"/>
<path fill="#F6DAB1" opacity="1.000000" stroke="none" 
	d="
M72.248077,304.678589 
	C76.883720,317.914948 85.786888,328.616425 96.467117,337.789154 
	C104.380394,344.585449 113.034576,350.519104 121.688919,356.951752 
	C122.689049,357.794220 123.358971,358.521973 123.717331,359.689270 
	C122.936096,361.775360 122.012260,363.437927 122.069740,365.065918 
	C122.472458,376.472260 123.077789,387.871490 123.618309,399.272980 
	C105.752525,388.554535 89.784317,375.572723 78.286270,358.051331 
	C74.904572,352.898071 72.913872,346.126648 72.430145,339.929443 
	C71.529335,328.388794 72.202385,316.725281 72.248077,304.678589 
z"/>
<path fill="#F9E9C5" opacity="1.000000" stroke="none" 
	d="
M123.644936,399.268127 
	C123.077789,387.871490 122.472458,376.472260 122.069740,365.065918 
	C122.012260,363.437927 122.936096,361.775360 123.803619,359.978027 
	C124.699821,360.062561 125.198158,360.297852 125.923912,361.092041 
	C126.888718,362.016113 127.626106,362.381378 128.363495,362.746643 
	C133.474609,365.321381 138.581451,367.904694 143.700073,370.464417 
	C144.855270,371.042114 146.051498,371.537750 147.759476,372.454803 
	C150.012695,378.862640 151.142807,385.138214 153.571945,390.862579 
	C160.150208,406.364777 171.962860,416.887299 187.001999,424.011200 
	C187.292587,425.274475 187.583176,426.537781 187.883835,428.196045 
	C187.463043,428.569611 187.032150,428.548187 186.090057,428.066895 
	C184.627472,427.446289 183.676071,427.285522 182.724686,427.124817 
	C169.816116,421.869904 156.781097,416.899536 144.051544,411.241882 
	C137.544907,408.349976 131.585587,404.226624 125.034271,400.162781 
	C124.365837,399.522400 124.042007,399.379120 123.718185,399.235809 
	C123.718185,399.235809 123.671562,399.263306 123.644936,399.268127 
z"/>
<path fill="#EDB5A8" opacity="1.000000" stroke="none" 
	d="
M40.415081,163.582611 
	C37.203304,163.588058 34.187599,163.101456 31.164139,163.047226 
	C24.235119,162.922913 17.302233,163.026611 10.371120,162.994141 
	C9.199790,162.988647 6.911468,163.438553 9.683695,161.143402 
	C14.456456,161.386703 18.816380,161.799118 23.184780,161.931229 
	C27.969465,162.075958 32.764118,161.885910 37.549374,162.020874 
	C38.579876,162.049942 39.588779,162.844818 40.415081,163.582611 
z"/>
<path fill="#F5CFC8" opacity="1.000000" stroke="none" 
	d="
M10.528172,236.836639 
	C11.857082,230.666748 13.535625,224.431137 15.584003,218.055084 
	C14.261827,224.200058 12.569816,230.485474 10.528172,236.836639 
z"/>
<path fill="#E6BCB0" opacity="1.000000" stroke="none" 
	d="
M147.663116,475.938812 
	C146.754211,476.251617 145.422867,476.456635 143.942932,476.305481 
	C144.943130,475.909851 146.091888,475.870453 147.663116,475.938812 
z"/>
<path fill="#F5DBB3" opacity="1.000000" stroke="none" 
	d="
M182.993469,427.360535 
	C183.676071,427.285522 184.627472,427.446289 185.814209,427.895508 
	C185.120453,427.988098 184.191360,427.792206 182.993469,427.360535 
z"/>
<path fill="#F5CFC8" opacity="1.000000" stroke="none" 
	d="
M16.256649,217.923126 
	C16.035578,217.062363 16.173597,216.117065 16.657202,215.062103 
	C16.873772,215.914490 16.744755,216.876526 16.256649,217.923126 
z"/>
<path fill="#F6DAB1" opacity="1.000000" stroke="none" 
	d="
M123.838928,399.481964 
	C124.042007,399.379120 124.365837,399.522400 124.820183,399.904358 
	C124.620361,400.004700 124.290016,399.866425 123.838928,399.481964 
z"/>
<path fill="#E6BCB0" opacity="1.000000" stroke="none" 
	d="
M161.746765,461.974304 
	C161.926224,462.358246 161.761917,462.675842 161.320709,463.042236 
	C161.163544,462.696686 161.283279,462.302307 161.746765,461.974304 
z"/>
<path fill="#E6BCB0" opacity="1.000000" stroke="none" 
	d="
M149.745712,473.974731 
	C149.924362,474.357727 149.759003,474.673065 149.318726,475.039124 
	C149.163116,474.695587 149.282410,474.301331 149.745712,473.974731 
z"/>
<path fill="#E6BCB0" opacity="1.000000" stroke="none" 
	d="
M148.743835,474.971191 
	C148.924591,475.360565 148.759583,475.676697 148.318466,476.041199 
	C148.160934,475.692383 148.279495,475.295166 148.743835,474.971191 
z"/>
<path fill="#E6BCB0" opacity="1.000000" stroke="none" 
	d="
M163.034485,461.619232 
	C162.976746,461.929443 162.793610,461.975952 162.329071,462.055725 
	C162.334808,461.844513 162.621948,461.600006 163.034485,461.619232 
z"/>
<path fill="#E6BCB0" opacity="1.000000" stroke="none" 
	d="
M150.746399,472.975403 
	C150.924088,473.358643 150.758301,473.673798 150.317474,474.039368 
	C150.162582,473.695618 150.282761,473.301483 150.746399,472.975403 
z"/>
<path fill="#E6BCB0" opacity="1.000000" stroke="none" 
	d="
M151.743744,471.970764 
	C151.925323,472.360291 151.761063,472.676758 151.320572,473.041382 
	C151.162201,472.692261 151.280060,472.294983 151.743744,471.970764 
z"/>
<path fill="#E6BCB0" opacity="1.000000" stroke="none" 
	d="
M160.752106,462.983521 
	C160.923706,463.356659 160.756012,463.671082 160.313995,464.038391 
	C160.164047,463.702484 160.288437,463.313660 160.752106,462.983521 
z"/>
<path fill="#E6BCB0" opacity="1.000000" stroke="none" 
	d="
M159.751953,463.982574 
	C159.924225,464.354645 159.757141,464.669556 159.315689,465.037811 
	C159.165085,464.702576 159.288834,464.314026 159.751953,463.982574 
z"/>
<path fill="#E6BCB0" opacity="1.000000" stroke="none" 
	d="
M158.745819,464.973602 
	C158.927017,465.360748 158.763351,465.677979 158.323029,466.043030 
	C158.164551,465.695129 158.282761,465.299408 158.745819,464.973602 
z"/>
<path fill="#E6BCB0" opacity="1.000000" stroke="none" 
	d="
M157.746063,465.974609 
	C157.926849,466.362793 157.762833,466.679199 157.322586,467.043213 
	C157.164658,466.694824 157.282959,466.298828 157.746063,465.974609 
z"/>
<path fill="#E6BCB0" opacity="1.000000" stroke="none" 
	d="
M152.747833,470.974548 
	C152.924072,471.358307 152.757355,471.672394 152.316528,472.038300 
	C152.163254,471.695038 152.284073,471.299988 152.747833,470.974548 
z"/>
<path fill="#E6BCB0" opacity="1.000000" stroke="none" 
	d="
M156.745728,466.974670 
	C156.926865,467.362640 156.762833,467.678986 156.322617,468.042847 
	C156.164459,467.694580 156.282516,467.298828 156.745728,466.974670 
z"/>
<path fill="#E6BCB0" opacity="1.000000" stroke="none" 
	d="
M155.745697,467.973389 
	C155.926071,468.362915 155.761765,468.679413 155.320969,469.043213 
	C155.163315,468.693817 155.282166,468.297058 155.745697,467.973389 
z"/>
<path fill="#E6BCB0" opacity="1.000000" stroke="none" 
	d="
M154.748993,468.979034 
	C154.924957,469.359131 154.759155,469.674896 154.317719,470.040649 
	C154.163818,469.698700 154.285522,469.306702 154.748993,468.979034 
z"/>
<path fill="#E6BCB0" opacity="1.000000" stroke="none" 
	d="
M153.745911,469.977783 
	C153.925476,470.358063 153.760345,470.673889 153.319962,471.040161 
	C153.163559,470.698212 153.282379,470.305756 153.745911,469.977783 
z"/>
<path fill="#FBEAC0" opacity="1.000000" stroke="none" 
	d="
M418.164307,50.714455 
	C410.546326,51.115124 402.666534,51.168976 394.456177,51.161102 
	C394.125610,51.099369 393.964569,50.654499 393.907745,50.425102 
	C398.697876,49.807304 403.542450,49.166782 408.392670,49.120285 
	C411.558350,49.089939 414.732239,49.921932 418.164307,50.714455 
z"/>
<path fill="#F3CDBB" opacity="1.000000" stroke="none" 
	d="
M363.422943,18.926172 
	C360.606415,17.260483 358.136017,15.453627 355.428375,13.431799 
	C360.380371,13.013356 363.393799,14.969426 363.422943,18.926172 
z"/>
<path fill="#F3CDBB" opacity="1.000000" stroke="none" 
	d="
M350.029419,33.647705 
	C349.871552,33.229691 349.692902,32.494896 349.796173,31.911560 
	C350.054932,32.485657 350.031799,32.908291 350.029419,33.647705 
z"/>
<path fill="#F3CDBB" opacity="1.000000" stroke="none" 
	d="
M361.313049,21.033615 
	C361.164551,20.701448 361.287903,20.312956 361.750549,19.982792 
	C361.921539,20.353176 361.753174,20.665232 361.313049,21.033615 
z"/>
<path fill="#F3CDBB" opacity="1.000000" stroke="none" 
	d="
M353.313904,29.032745 
	C353.163544,28.696484 353.284119,28.302990 353.746887,27.975458 
	C353.921021,28.352783 353.752930,28.664146 353.313904,29.032745 
z"/>
<path fill="#FBEAC0" opacity="1.000000" stroke="none" 
	d="
M421.104553,52.781410 
	C420.865692,52.870235 420.508942,52.685894 420.080505,52.207817 
	C420.334778,52.112137 420.660706,52.310192 421.104553,52.781410 
z"/>
<path fill="#FBEAC0" opacity="1.000000" stroke="none" 
	d="
M419.979065,51.649822 
	C419.688599,51.865612 419.297119,51.760902 418.755981,51.371582 
	C419.030273,51.167755 419.454163,51.248539 419.979065,51.649822 
z"/>
<path fill="#F3CDBB" opacity="1.000000" stroke="none" 
	d="
M350.308411,32.029999 
	C350.163940,31.703394 350.289337,31.317137 350.752319,30.985704 
	C350.919373,31.350470 350.748810,31.660408 350.308411,32.029999 
z"/>
<path fill="#F3CDBB" opacity="1.000000" stroke="none" 
	d="
M351.315582,31.035181 
	C351.162292,30.693686 351.281311,30.298439 351.744659,29.973936 
	C351.921967,30.356928 351.754944,30.669180 351.315582,31.035181 
z"/>
<path fill="#F3CDBB" opacity="1.000000" stroke="none" 
	d="
M352.313904,30.032600 
	C352.164673,29.698542 352.286224,29.307543 352.748901,28.979715 
	C352.921600,29.353811 352.753143,29.664736 352.313904,30.032600 
z"/>
<path fill="#F3CDBB" opacity="1.000000" stroke="none" 
	d="
M362.312317,20.033836 
	C362.162811,19.692533 362.284454,19.295231 362.747681,18.971714 
	C362.920654,19.356277 362.752014,19.667057 362.312317,20.033836 
z"/>
<path fill="#F3CDBB" opacity="1.000000" stroke="none" 
	d="
M360.316010,22.033291 
	C360.164917,21.700212 360.285126,21.310820 360.747559,20.981506 
	C360.922333,21.353382 360.754822,21.665180 360.316010,22.033291 
z"/>
<path fill="#F3CDBB" opacity="1.000000" stroke="none" 
	d="
M354.307190,28.027498 
	C354.164490,27.704107 354.289886,27.318169 354.752686,26.985989 
	C354.918488,27.348148 354.746857,27.656548 354.307190,28.027498 
z"/>
<path fill="#F3CDBB" opacity="1.000000" stroke="none" 
	d="
M355.313965,27.034245 
	C355.162018,26.694012 355.281616,26.298973 355.745361,25.974785 
	C355.921509,26.356903 355.753510,26.668169 355.313965,27.034245 
z"/>
<path fill="#F3CDBB" opacity="1.000000" stroke="none" 
	d="
M356.316956,26.033775 
	C356.165192,25.700859 356.284943,25.312078 356.747314,24.982456 
	C356.922760,25.353714 356.755646,25.665812 356.316956,26.033775 
z"/>
<path fill="#F3CDBB" opacity="1.000000" stroke="none" 
	d="
M357.313904,25.034599 
	C357.164734,24.701262 357.287872,24.312616 357.750427,23.982817 
	C357.921997,24.354206 357.754120,24.666750 357.313904,25.034599 
z"/>
<path fill="#F3CDBB" opacity="1.000000" stroke="none" 
	d="
M358.313568,24.034794 
	C358.163910,23.696795 358.286194,23.303713 358.749023,22.977535 
	C358.921539,23.356199 358.753510,23.667957 358.313568,24.034794 
z"/>
<path fill="#F3CDBB" opacity="1.000000" stroke="none" 
	d="
M359.315552,23.034060 
	C359.163971,22.694962 359.283539,22.300325 359.746277,21.975367 
	C359.921875,22.356203 359.754272,22.667362 359.315552,23.034060 
z"/>
<path fill="#FBE8C0" opacity="1.000000" stroke="none" 
	d="
M107.240219,51.101601 
	C98.092613,49.733597 89.272163,49.492798 80.318283,53.020805 
	C86.934456,47.371796 95.062317,48.947323 103.008232,49.420418 
	C104.427383,49.504917 105.832672,49.822243 107.701431,50.098206 
	C107.932014,50.434509 107.705544,50.704666 107.240219,51.101601 
z"/>
<path fill="#E1B5AB" opacity="1.000000" stroke="none" 
	d="
M140.603821,14.926944 
	C140.703064,16.373320 140.431366,17.841013 140.054443,19.696388 
	C138.906708,19.180025 137.864182,18.275982 136.308685,16.927094 
	C137.958420,16.095192 139.095657,15.521726 140.603821,14.926944 
z"/>
<path fill="#E1B5AB" opacity="1.000000" stroke="none" 
	d="
M140.989532,21.366169 
	C142.000061,21.826046 143.083237,22.597506 144.056335,23.726093 
	C142.984894,23.281399 142.023529,22.479576 140.989532,21.366169 
z"/>
<path fill="#FBE8C0" opacity="1.000000" stroke="none" 
	d="
M79.647141,52.949139 
	C79.197205,53.640385 78.411072,54.372005 77.273163,55.030052 
	C77.717896,54.300819 78.514420,53.645168 79.647141,52.949139 
z"/>
<path fill="#E1B5AB" opacity="1.000000" stroke="none" 
	d="
M150.045456,30.242062 
	C150.513321,30.402550 151.108398,30.805637 151.776154,31.491425 
	C151.290131,31.344301 150.731400,30.914482 150.045456,30.242062 
z"/>
<path fill="#E1B5AB" opacity="1.000000" stroke="none" 
	d="
M143.618225,14.064281 
	C143.165939,14.483877 142.350891,14.891318 141.232483,15.115701 
	C141.704590,14.639136 142.480026,14.345632 143.618225,14.064281 
z"/>
<path fill="#E1B5AB" opacity="1.000000" stroke="none" 
	d="
M139.958420,20.319298 
	C140.298462,20.166067 140.685989,20.289696 141.015030,20.751183 
	C140.639664,20.924747 140.322784,20.760454 139.958420,20.319298 
z"/>
<path fill="#FBE8C0" opacity="1.000000" stroke="none" 
	d="
M76.711380,54.987106 
	C76.858932,55.211395 76.740692,55.506767 76.393295,55.904179 
	C76.257957,55.690208 76.351784,55.374195 76.711380,54.987106 
z"/>
<path fill="#E1B5AB" opacity="1.000000" stroke="none" 
	d="
M148.959778,29.324776 
	C149.293259,29.163471 149.675583,29.283428 150.021332,29.739332 
	C149.659378,29.918863 149.334000,29.762449 148.959778,29.324776 
z"/>
<path fill="#E1B5AB" opacity="1.000000" stroke="none" 
	d="
M147.957321,28.319267 
	C148.295044,28.166735 148.679565,28.291897 149.010773,28.753271 
	C148.639679,28.925308 148.321915,28.761133 147.957321,28.319267 
z"/>
<path fill="#E1B5AB" opacity="1.000000" stroke="none" 
	d="
M146.958710,27.317474 
	C147.293137,27.166855 147.675903,27.293381 148.008820,27.754776 
	C147.641647,27.924637 147.324356,27.759628 146.958710,27.317474 
z"/>
<path fill="#E1B5AB" opacity="1.000000" stroke="none" 
	d="
M145.958923,26.318153 
	C146.293854,26.167021 146.677231,26.292952 147.009979,26.754194 
	C146.642029,26.924744 146.324692,26.759981 145.958923,26.318153 
z"/>
<path fill="#E1B5AB" opacity="1.000000" stroke="none" 
	d="
M144.957718,25.319847 
	C145.295425,25.167051 145.680237,25.291868 146.011719,25.753029 
	C145.640549,25.925402 145.322678,25.761431 144.957718,25.319847 
z"/>
<path fill="#E1B5AB" opacity="1.000000" stroke="none" 
	d="
M143.957489,24.320938 
	C144.296417,24.166702 144.681656,24.290163 145.012207,24.751465 
	C144.639603,24.925749 144.321701,24.762192 143.957489,24.320938 
z"/>
<path fill="#F9EAC7" opacity="1.000000" stroke="none" 
	d="
M325.031128,346.812500 
	C325.391876,346.921143 325.752625,347.029755 326.532043,347.452576 
	C327.631775,348.180298 328.312836,348.593811 328.993927,349.007355 
	C330.035736,349.682373 331.077515,350.357391 332.540100,351.409576 
	C334.277740,352.910248 335.594574,354.033783 336.911407,355.157349 
	C337.018524,355.448608 337.195465,355.688324 337.721863,356.298279 
	C338.721802,357.503815 339.442047,358.287567 340.070740,359.436768 
	C339.017792,362.963593 337.390045,366.089325 337.218658,369.292938 
	C336.680695,379.348206 332.855225,387.816895 326.677368,395.620209 
	C312.816406,413.128021 284.402161,417.113342 266.371948,403.835602 
	C255.673019,395.956665 247.955566,395.653015 237.142029,402.912323 
	C226.509644,410.049988 215.112427,413.623016 202.233093,411.049042 
	C184.780350,407.561066 172.909683,397.393951 167.085373,380.698425 
	C164.656876,373.737091 163.591934,366.300049 161.906998,359.079315 
	C172.947784,346.038696 187.634491,341.010651 204.485764,340.260864 
	C202.644196,347.166779 203.390167,350.451416 208.394623,354.731750 
	C213.689972,359.260925 218.965454,363.831757 224.491470,368.068970 
	C236.728195,377.451843 250.098907,380.801117 265.328247,374.881226 
	C274.771942,368.254852 283.995789,361.847382 292.903473,355.026947 
	C298.638031,350.636200 299.268494,347.251740 297.389404,340.121796 
	C300.551971,340.271484 303.297638,340.465546 306.043274,340.659607 
	C309.670776,341.482574 313.298309,342.305573 317.477722,343.463593 
	C320.363464,344.803253 322.697296,345.807861 325.031128,346.812500 
z"/>
<path fill="#D5B193" opacity="1.000000" stroke="none" 
	d="
M161.508316,359.046204 
	C163.591934,366.300049 164.656876,373.737091 167.085373,380.698425 
	C172.909683,397.393951 184.780350,407.561066 202.233093,411.049042 
	C215.112427,413.623016 226.509644,410.049988 237.142029,402.912323 
	C247.955566,395.653015 255.673019,395.956665 266.371948,403.835602 
	C284.402161,417.113342 312.816406,413.128021 326.677368,395.620209 
	C332.855225,387.816895 336.680695,379.348206 337.218658,369.292938 
	C337.390045,366.089325 339.017792,362.963593 340.496826,359.421234 
	C345.408447,358.391846 349.369263,359.435272 352.918030,362.087982 
	C352.967957,362.503448 353.017883,362.918945 353.064209,364.027771 
	C353.083954,365.489166 353.107330,366.257202 353.130707,367.025269 
	C353.106506,367.468903 353.082306,367.912506 353.031372,369.100159 
	C353.052216,370.950531 353.099792,372.056854 353.147369,373.163208 
	C350.655060,393.336609 340.695770,408.705536 323.387817,419.315308 
	C320.853027,420.869110 318.205872,422.239655 315.306152,423.857178 
	C305.965149,427.202637 296.677032,428.733154 287.101624,427.941895 
	C277.530701,427.151001 268.578369,424.274780 260.503723,419.047882 
	C251.175461,413.009583 252.439560,412.306519 242.693436,418.417358 
	C225.471268,429.215698 206.973450,430.919464 187.380966,424.056885 
	C171.962860,416.887299 160.150208,406.364777 153.571945,390.862579 
	C151.142807,385.138214 150.012695,378.862640 148.125946,372.504333 
	C148.284897,371.065399 148.782822,369.979279 148.903870,368.852722 
	C150.014297,358.517700 151.299576,357.461517 161.508316,359.046204 
z"/>
<path fill="#E08D45" opacity="1.000000" stroke="none" 
	d="
M354.073822,102.339233 
	C364.867096,94.898216 375.710571,87.546722 386.849609,80.674202 
	C392.436584,77.227180 398.338165,74.016869 404.501801,71.849052 
	C411.690277,69.320786 416.765045,72.469543 420.049133,79.522774 
	C425.040466,90.242653 423.413574,100.758575 418.523254,110.722542 
	C410.797333,126.464058 402.386658,141.869507 394.125793,157.741516 
	C393.089752,156.907959 391.969116,155.861481 391.331421,154.575485 
	C381.755615,135.264679 369.567322,117.830368 354.073822,102.339233 
z"/>
<path fill="#4D414C" opacity="1.000000" stroke="none" 
	d="
M264.974396,374.925110 
	C250.098907,380.801117 236.728195,377.451843 224.491470,368.068970 
	C218.965454,363.831757 213.689972,359.260925 208.394623,354.731750 
	C203.390167,350.451416 202.644196,347.166779 204.924805,340.265930 
	C206.212143,338.797729 207.450516,337.703003 209.164444,336.302063 
	C210.177734,335.696594 210.715469,335.397369 211.253189,335.098145 
	C211.253189,335.098145 211.672836,335.144196 212.324799,335.101746 
	C220.325806,335.123962 227.674835,335.188629 235.011902,335.653687 
	C236.711075,340.248199 237.520844,345.206665 240.305405,348.490570 
	C248.091324,357.672729 256.694031,366.162262 264.974396,374.925110 
z"/>
<path fill="#FEDC64" opacity="1.000000" stroke="none" 
	d="
M243.113708,202.423782 
	C243.036026,180.699570 242.981827,159.415115 243.023056,138.130859 
	C243.035904,131.502014 246.888351,127.855530 252.533569,129.167587 
	C256.373474,130.060059 259.036011,132.211807 259.022797,136.746201 
	C258.960266,158.197006 259.048889,179.648300 258.963470,201.098953 
	C258.936615,207.843338 255.668564,210.536224 249.312103,210.023071 
	C244.670044,209.648331 243.891357,206.382217 243.113708,202.423782 
z"/>
<path fill="#4E414B" opacity="1.000000" stroke="none" 
	d="
M152.704773,242.880310 
	C153.214172,242.288513 153.723541,241.696701 154.848724,240.990204 
	C156.233917,240.156342 157.003342,239.437180 157.772751,238.718002 
	C157.772751,238.718002 158.002213,238.992523 158.278076,238.893875 
	C162.380844,237.866302 166.207733,236.937378 170.032196,236.436401 
	C170.012985,238.857117 169.996201,240.849884 169.628891,242.946655 
	C164.806686,244.019852 162.222595,246.876419 162.395050,251.358612 
	C162.569565,255.894424 165.600540,258.352264 169.988525,259.580017 
	C170.120300,271.439240 177.488541,277.355743 187.436310,273.867157 
	C189.389999,273.182037 191.120956,271.861725 192.938736,271.203003 
	C192.631775,272.736511 192.340698,273.901398 192.049637,275.066254 
	C191.300262,282.552002 183.011612,290.317902 173.953125,290.787384 
	C169.166534,291.035461 164.280945,289.373444 159.135925,287.979736 
	C157.131378,286.351562 155.430984,285.317474 153.730591,284.283386 
	C153.730591,284.283386 153.727020,284.124298 153.685013,283.934082 
	C153.340347,283.565796 153.037689,283.387756 152.735046,283.209686 
	C152.735046,283.209686 152.918365,283.224426 152.858109,282.867615 
	C148.948151,275.992432 146.995712,269.068573 147.897812,261.410126 
	C148.395264,257.186829 148.524170,252.920120 148.819229,248.672974 
	C149.014511,248.200668 149.209793,247.728348 149.872589,246.950439 
	C150.563629,246.099609 150.787155,245.554367 151.010696,245.009140 
	C151.010696,245.009140 151.000000,245.000000 151.292450,244.979874 
	C151.958191,244.266602 152.331482,243.573456 152.704773,242.880310 
z"/>
<path fill="#4E404B" opacity="1.000000" stroke="none" 
	d="
M310.857971,247.549866 
	C310.968292,247.173859 311.078613,246.797867 311.728546,246.199615 
	C313.515900,244.327118 314.763641,242.676834 316.011414,241.026566 
	C316.011414,241.026566 316.001404,240.996063 316.368896,241.002045 
	C318.129852,239.941284 319.523285,238.874542 320.916718,237.807800 
	C320.916718,237.807785 320.930420,237.892578 321.283630,237.920517 
	C323.746063,237.107391 325.855286,236.266327 327.964508,235.425262 
	C328.743744,235.303543 329.522980,235.181824 330.792480,235.288635 
	C331.453369,235.715118 331.658936,235.865173 331.925171,236.394989 
	C331.959442,238.815247 331.967987,240.807892 331.610199,242.886368 
	C326.560760,243.691864 323.649506,246.332794 323.718140,251.134155 
	C323.791534,256.266632 327.191742,258.582306 331.979645,259.622681 
	C331.986023,260.884399 331.989166,261.714294 331.994171,262.544220 
	C332.035522,269.385162 335.655396,274.007385 341.674194,274.905212 
	C347.622070,275.792419 352.711578,272.409515 354.763000,265.960419 
	C354.914276,267.901031 355.042358,269.544098 355.170410,271.187164 
	C354.225342,273.956970 353.280273,276.726746 351.746735,279.797913 
	C350.501526,281.144012 349.844788,282.188812 349.188049,283.233582 
	C349.188049,283.233582 349.128876,283.144073 348.916504,283.225342 
	C348.508484,283.614258 348.312836,283.921875 348.117188,284.229462 
	C348.117157,284.229462 348.144501,284.128998 347.848999,284.150513 
	C347.057129,284.812225 346.560730,285.452393 346.064301,286.092560 
	C346.064301,286.092560 346.004730,286.014862 345.727539,286.057190 
	C345.021118,286.511841 344.591919,286.924194 344.162720,287.336517 
	C344.162720,287.336517 344.148285,287.236420 343.865234,287.209656 
	C343.143738,287.591156 342.705322,287.999451 342.266876,288.407715 
	C342.266876,288.407715 342.154816,288.422180 341.877563,288.326233 
	C341.111267,288.598633 340.622223,288.967041 340.133179,289.335419 
	C340.133179,289.335419 340.094574,289.242950 339.768616,289.168396 
	C338.597168,289.509308 337.751648,289.924774 336.906097,290.340210 
	C336.906097,290.340210 336.660736,290.373932 336.136597,290.225830 
	C330.943359,289.209015 326.263794,288.391449 321.610992,287.442871 
	C320.051147,287.124847 318.559418,286.472839 317.036560,285.973480 
	C317.036560,285.973480 317.001221,286.001373 316.950439,285.667542 
	C316.236786,284.906281 315.573883,284.478882 314.910980,284.051483 
	C314.910980,284.051483 314.977478,284.021942 314.867126,283.825378 
	C314.486786,283.429932 314.216797,283.231079 313.946777,283.032227 
	C313.946777,283.032227 314.001862,283.004486 313.950439,282.713379 
	C313.469971,282.024384 313.040894,281.626556 312.611816,281.228699 
	C312.611816,281.228699 312.758179,281.182068 312.711121,280.886566 
	C311.300568,278.062256 309.937073,275.533447 308.573578,273.004608 
	C308.389099,272.555450 308.204620,272.106323 308.308472,270.977356 
	C309.350555,262.714966 310.104279,255.132416 310.857971,247.549866 
z"/>
<path fill="#61545D" opacity="1.000000" stroke="none" 
	d="
M331.976501,242.800537 
	C331.967987,240.807892 331.959442,238.815247 332.203857,236.374512 
	C332.937256,235.684509 333.417664,235.442596 333.898041,235.200684 
	C344.580292,235.516510 354.241730,244.075943 355.533478,255.028748 
	C356.131317,260.097504 355.589691,265.300629 355.367554,270.815002 
	C355.042358,269.544098 354.914276,267.901031 354.763000,265.960419 
	C352.711578,272.409515 347.622070,275.792419 341.674194,274.905212 
	C335.655396,274.007385 332.035522,269.385162 331.994171,262.544220 
	C331.989166,261.714294 331.986023,260.884399 332.329773,259.500580 
	C337.018799,258.139801 339.586395,255.373184 339.629822,251.134506 
	C339.678986,246.334549 336.564789,243.715317 331.976501,242.800537 
z"/>
<path fill="#60545E" opacity="1.000000" stroke="none" 
	d="
M169.979416,242.842667 
	C169.996201,240.849884 170.012985,238.857117 170.349976,236.428253 
	C171.431625,235.707626 172.193039,235.423050 172.954468,235.138489 
	C173.722153,235.185608 174.489853,235.232727 175.709229,235.708908 
	C179.837158,238.031052 183.513397,239.924133 187.189636,241.817230 
	C187.189636,241.817230 186.990341,241.969208 187.068024,242.237610 
	C188.189240,243.613510 189.232742,244.720993 190.276260,245.828491 
	C190.276260,245.828491 190.161346,245.839417 190.172638,246.188492 
	C194.419495,254.258804 192.699860,262.659149 192.954636,270.834351 
	C191.120956,271.861725 189.389999,273.182037 187.436310,273.867157 
	C177.488541,277.355743 170.120300,271.439240 170.360291,259.503357 
	C175.504791,258.393829 178.167084,255.670761 178.300049,250.866470 
	C178.420319,246.520493 175.608368,243.962906 169.979416,242.842667 
z"/>
<path fill="#F3C86C" opacity="1.000000" stroke="none" 
	d="
M235.023865,335.253296 
	C227.674835,335.188629 220.325806,335.123962 212.516357,335.013062 
	C213.633072,334.640717 215.209534,334.034424 216.787460,334.030579 
	C240.591553,333.972961 264.395905,333.973053 288.199921,334.047150 
	C289.734070,334.051910 291.266022,334.770996 292.879456,335.607117 
	C292.959930,336.056396 292.823578,336.215057 292.419586,336.138977 
	C290.397919,335.744476 288.780548,335.151611 287.162506,335.149811 
	C269.783020,335.130615 252.403427,335.204742 235.023865,335.253296 
z"/>
<path fill="#6D543A" opacity="1.000000" stroke="none" 
	d="
M148.544952,248.927216 
	C148.524170,252.920120 148.395264,257.186829 147.897812,261.410126 
	C146.995712,269.068573 148.948151,275.992432 152.767670,282.884338 
	C150.903366,280.373657 148.213547,277.710480 147.400330,274.562500 
	C145.221924,266.130096 144.845795,257.530609 148.544952,248.927216 
z"/>
<path fill="#745C46" opacity="1.000000" stroke="none" 
	d="
M192.938736,271.203003 
	C192.699860,262.659149 194.419495,254.258804 190.212006,246.146301 
	C195.373978,251.840057 196.747360,268.220123 192.358032,274.879822 
	C192.340698,273.901398 192.631775,272.736511 192.938736,271.203003 
z"/>
<path fill="#5B4332" opacity="1.000000" stroke="none" 
	d="
M310.576355,247.792465 
	C310.104279,255.132416 309.350555,262.714966 308.333862,270.607147 
	C307.085815,263.121765 306.348572,255.350830 310.576355,247.792465 
z"/>
<path fill="#F3C86C" opacity="1.000000" stroke="none" 
	d="
M352.895447,361.719421 
	C349.369263,359.435272 345.408447,358.391846 340.588379,359.055786 
	C339.442047,358.287567 338.721802,357.503815 337.919617,356.407379 
	C340.577515,356.398224 343.317139,356.941254 346.057281,356.944122 
	C349.413849,356.947662 351.698425,358.181122 352.895447,361.719421 
z"/>
<path fill="#745C46" opacity="1.000000" stroke="none" 
	d="
M172.658829,234.929581 
	C172.193039,235.423050 171.431625,235.707626 170.352417,236.000320 
	C166.207733,236.937378 162.380844,237.866302 158.164017,238.755051 
	C162.637115,237.383469 167.500153,236.052078 172.658829,234.929581 
z"/>
<path fill="#5B4332" opacity="1.000000" stroke="none" 
	d="
M317.209839,286.269226 
	C318.559418,286.472839 320.051147,287.124847 321.610992,287.442871 
	C326.263794,288.391449 330.943359,289.209015 336.103149,290.106628 
	C329.509155,292.609863 323.266571,290.553528 317.209839,286.269226 
z"/>
<path fill="#745C46" opacity="1.000000" stroke="none" 
	d="
M187.055756,241.515472 
	C183.513397,239.924133 179.837158,238.031052 176.076202,235.828979 
	C179.634964,237.417908 183.278427,239.315811 187.055756,241.515472 
z"/>
<path fill="#F3C86C" opacity="1.000000" stroke="none" 
	d="
M416.691101,326.057709 
	C414.270172,329.004700 411.503906,331.989136 408.406555,335.052734 
	C410.832245,332.119659 413.589020,329.107422 416.691101,326.057709 
z"/>
<path fill="#F3C86C" opacity="1.000000" stroke="none" 
	d="
M305.890686,340.335052 
	C303.297638,340.465546 300.551971,340.271484 297.132385,339.920593 
	C295.246826,338.580872 294.035187,337.397980 292.823578,336.215057 
	C292.823578,336.215057 292.959930,336.056396 293.029724,335.976624 
	C297.312378,337.268066 301.525238,338.639282 305.890686,340.335052 
z"/>
<path fill="#F3C86C" opacity="1.000000" stroke="none" 
	d="
M324.959381,346.472931 
	C322.697296,345.807861 320.363464,344.803253 317.862946,343.499023 
	C320.093384,344.177399 322.490509,345.155396 324.959381,346.472931 
z"/>
<path fill="#F3C86C" opacity="1.000000" stroke="none" 
	d="
M353.476807,373.065369 
	C353.099792,372.056854 353.052216,370.950531 353.037476,369.433441 
	C354.909637,369.066956 356.748932,369.111237 358.969666,369.186005 
	C357.502808,370.466858 355.654510,371.717194 353.476807,373.065369 
z"/>
<path fill="#5B4332" opacity="1.000000" stroke="none" 
	d="
M308.570496,273.352112 
	C309.937073,275.533447 311.300568,278.062256 312.712891,280.963379 
	C311.363617,278.790314 309.965515,276.244965 308.570496,273.352112 
z"/>
<path fill="#5B4332" opacity="1.000000" stroke="none" 
	d="
M327.610565,235.366364 
	C325.855286,236.266327 323.746063,237.107391 321.242798,237.907257 
	C322.984680,237.013199 325.120667,236.160324 327.610565,235.366364 
z"/>
<path fill="#5B4332" opacity="1.000000" stroke="none" 
	d="
M315.709625,241.131943 
	C314.763641,242.676834 313.515900,244.327118 311.944519,245.995560 
	C312.883209,244.421600 314.145508,242.829453 315.709625,241.131943 
z"/>
<path fill="#6D543A" opacity="1.000000" stroke="none" 
	d="
M153.864288,284.580475 
	C155.430984,285.317474 157.131378,286.351562 158.874146,287.723969 
	C157.276993,287.000732 155.637497,285.939148 153.864288,284.580475 
z"/>
<path fill="#F3C86C" opacity="1.000000" stroke="none" 
	d="
M405.794891,337.097198 
	C404.988617,338.357483 403.828735,339.630615 402.332306,340.947021 
	C403.144287,339.696869 404.292786,338.403473 405.794891,337.097198 
z"/>
<path fill="#F3C86C" opacity="1.000000" stroke="none" 
	d="
M336.900574,354.796204 
	C335.594574,354.033783 334.277740,352.910248 332.851593,351.469727 
	C334.124786,352.246796 335.507263,353.340912 336.900574,354.796204 
z"/>
<path fill="#5B4332" opacity="1.000000" stroke="none" 
	d="
M320.579865,237.847076 
	C319.523285,238.874542 318.129852,239.941284 316.382690,241.010666 
	C317.433624,239.970993 318.838318,238.928680 320.579865,237.847076 
z"/>
<path fill="#745C46" opacity="1.000000" stroke="none" 
	d="
M190.217834,245.498352 
	C189.232742,244.720993 188.189240,243.613510 187.165070,242.156647 
	C188.176071,242.927582 189.167740,244.047913 190.217834,245.498352 
z"/>
<path fill="#F3C86C" opacity="1.000000" stroke="none" 
	d="
M366.016785,365.201721 
	C365.473389,366.118164 364.563538,366.998077 363.326050,367.907288 
	C363.882355,367.012756 364.766357,366.088989 366.016785,365.201721 
z"/>
<path fill="#5B4332" opacity="1.000000" stroke="none" 
	d="
M349.468018,283.103760 
	C349.844788,282.188812 350.501526,281.144012 351.488953,280.040955 
	C351.129120,280.979736 350.438538,281.976837 349.468018,283.103760 
z"/>
<path fill="#5B4332" opacity="1.000000" stroke="none" 
	d="
M333.699280,235.033096 
	C333.417664,235.442596 332.937256,235.684509 332.178162,235.946899 
	C331.658936,235.865173 331.453369,235.715118 331.184326,235.351379 
	C331.890778,235.078873 332.695679,234.972183 333.699280,235.033096 
z"/>
<path fill="#F3C86C" opacity="1.000000" stroke="none" 
	d="
M353.430603,366.946838 
	C353.107330,366.257202 353.083954,365.489166 353.108398,364.338562 
	C353.347687,364.926819 353.539093,365.897644 353.430603,366.946838 
z"/>
<path fill="#745C46" opacity="1.000000" stroke="none" 
	d="
M157.453247,238.761414 
	C157.003342,239.437180 156.233917,240.156342 155.121475,240.871078 
	C155.563538,240.179367 156.348648,239.492096 157.453247,238.761414 
z"/>
<path fill="#6D543A" opacity="1.000000" stroke="none" 
	d="
M152.442719,242.995010 
	C152.331482,243.573456 151.958191,244.266602 151.297546,244.984955 
	C151.400345,244.376678 151.790512,243.743195 152.442719,242.995010 
z"/>
<path fill="#F3C86C" opacity="1.000000" stroke="none" 
	d="
M422.647095,318.069305 
	C422.526550,318.915802 422.072083,319.834442 421.334320,320.901001 
	C421.471710,320.079742 421.892426,319.110596 422.647095,318.069305 
z"/>
<path fill="#F3C86C" opacity="1.000000" stroke="none" 
	d="
M398.843048,343.121735 
	C398.661835,343.710632 398.147980,344.314331 397.326233,344.974487 
	C397.515747,344.399475 398.013092,343.768036 398.843048,343.121735 
z"/>
<path fill="#F3C86C" opacity="1.000000" stroke="none" 
	d="
M328.929077,348.676086 
	C328.312836,348.593811 327.631775,348.180298 326.813171,347.483521 
	C327.405151,347.581818 328.134674,347.963318 328.929077,348.676086 
z"/>
<path fill="#F3C86C" opacity="1.000000" stroke="none" 
	d="
M392.824829,348.107056 
	C392.636108,348.681274 392.121033,349.277130 391.297485,349.920654 
	C391.492188,349.355103 391.995331,348.741913 392.824829,348.107056 
z"/>
<path fill="#F3C86C" opacity="1.000000" stroke="none" 
	d="
M420.726379,321.095612 
	C420.615204,321.702240 420.170532,322.356201 419.441040,323.134888 
	C419.568451,322.554077 419.980682,321.848511 420.726379,321.095612 
z"/>
<path fill="#5B4332" opacity="1.000000" stroke="none" 
	d="
M346.355835,286.010315 
	C346.560730,285.452393 347.057129,284.812225 347.894196,284.176392 
	C347.705688,284.763184 347.176544,285.345612 346.355835,286.010315 
z"/>
<path fill="#F3C86C" opacity="1.000000" stroke="none" 
	d="
M382.887329,355.140503 
	C382.680756,355.713806 382.143646,356.290344 381.298096,356.903229 
	C381.512024,356.340973 382.034393,355.742371 382.887329,355.140503 
z"/>
<path fill="#F6DAB1" opacity="1.000000" stroke="none" 
	d="
M128.221893,362.468536 
	C127.626106,362.381378 126.888718,362.016113 126.091003,361.316833 
	C126.713875,361.385315 127.397087,361.787872 128.221893,362.468536 
z"/>
<path fill="#F3C86C" opacity="1.000000" stroke="none" 
	d="
M376.882202,359.131927 
	C376.673859,359.703247 376.137238,360.281433 375.290161,360.888855 
	C375.504456,360.325012 376.029205,359.731903 376.882202,359.131927 
z"/>
<path fill="#5B4332" opacity="1.000000" stroke="none" 
	d="
M315.020508,284.327484 
	C315.573883,284.478882 316.236786,284.906281 316.962341,285.648651 
	C316.393341,285.510223 315.761688,285.056854 315.020508,284.327484 
z"/>
<path fill="#5B4332" opacity="1.000000" stroke="none" 
	d="
M337.268372,290.327515 
	C337.751648,289.924774 338.597168,289.509308 339.818542,289.164307 
	C339.339813,289.594788 338.485229,289.954773 337.268372,290.327515 
z"/>
<path fill="#5B4332" opacity="1.000000" stroke="none" 
	d="
M344.465576,287.292419 
	C344.591919,286.924194 345.021118,286.511841 345.768677,286.083679 
	C345.647522,286.461334 345.207977,286.854858 344.465576,287.292419 
z"/>
<path fill="#5B4332" opacity="1.000000" stroke="none" 
	d="
M312.665771,281.523346 
	C313.040894,281.626556 313.469971,282.024384 313.928589,282.735413 
	C313.545319,282.638367 313.132507,282.228180 312.665771,281.523346 
z"/>
<path fill="#6D543A" opacity="1.000000" stroke="none" 
	d="
M150.753052,245.161240 
	C150.787155,245.554367 150.563629,246.099609 150.067139,246.780273 
	C150.027908,246.381577 150.261642,245.847458 150.753052,245.161240 
z"/>
<path fill="#F3C86C" opacity="1.000000" stroke="none" 
	d="
M210.925156,335.090118 
	C210.715469,335.397369 210.177734,335.696594 209.328400,336.034882 
	C209.543549,335.743317 210.070328,335.412689 210.925156,335.090118 
z"/>
<path fill="#5B4332" opacity="1.000000" stroke="none" 
	d="
M340.441437,289.331268 
	C340.622223,288.967041 341.111267,288.598633 341.928467,288.303040 
	C341.754303,288.692902 341.251984,289.010010 340.441437,289.331268 
z"/>
<path fill="#5B4332" opacity="1.000000" stroke="none" 
	d="
M342.562378,288.362762 
	C342.705322,287.999451 343.143738,287.591156 343.913940,287.223267 
	C343.783112,287.614990 343.320496,287.966400 342.562378,288.362762 
z"/>
<path fill="#F3C86C" opacity="1.000000" stroke="none" 
	d="
M373.936218,361.163818 
	C373.950500,361.330261 373.715607,361.575317 373.242065,361.913879 
	C373.231293,361.752411 373.459137,361.497437 373.936218,361.163818 
z"/>
<path fill="#6D543A" opacity="1.000000" stroke="none" 
	d="
M152.818573,283.462769 
	C153.037689,283.387756 153.340347,283.565796 153.710526,284.009430 
	C153.486069,284.088623 153.194077,283.902222 152.818573,283.462769 
z"/>
<path fill="#5B4332" opacity="1.000000" stroke="none" 
	d="
M314.024536,283.284546 
	C314.216797,283.231079 314.486786,283.429932 314.863220,283.861511 
	C314.680542,283.908447 314.391449,283.722626 314.024536,283.284546 
z"/>
<path fill="#5B4332" opacity="1.000000" stroke="none" 
	d="
M348.388824,284.140717 
	C348.312836,283.921875 348.508484,283.614258 348.966919,283.207092 
	C349.039978,283.422333 348.850220,283.737152 348.388824,284.140717 
z"/>
<path fill="#F3C86C" opacity="1.000000" stroke="none" 
	d="
M385.936584,353.163025 
	C385.948517,353.325867 385.711639,353.567108 385.239349,353.905945 
	C385.231903,353.749542 385.459839,353.495483 385.936584,353.163025 
z"/>
<path fill="#E08D46" opacity="1.000000" stroke="none" 
	d="
M79.020760,92.119095 
	C80.359360,86.935829 80.948242,81.803329 83.191765,77.541954 
	C86.843948,70.604965 91.238304,69.045425 98.635170,72.174744 
	C106.393410,75.456940 113.916054,79.469475 121.109589,83.869247 
	C130.147980,89.397385 138.747467,95.643166 148.308029,102.100449 
	C131.758804,117.742455 119.478966,136.252090 108.920410,157.203598 
	C106.489235,154.274200 104.397255,152.538498 103.305817,150.312256 
	C95.655655,134.707977 88.058357,119.072693 80.831268,103.270287 
	C79.376297,100.088913 79.576790,96.150429 79.020760,92.119095 
z"/>
<path fill="#5F535F" opacity="1.000000" stroke="none" 
	d="
M292.419586,336.138977 
	C294.035187,337.397980 295.246826,338.580872 296.715454,339.964966 
	C299.268494,347.251740 298.638031,350.636200 292.903473,355.026947 
	C283.995789,361.847382 274.771942,368.254852 265.328247,374.881226 
	C256.694031,366.162262 248.091324,357.672729 240.305405,348.490570 
	C237.520844,345.206665 236.711075,340.248199 235.011902,335.653687 
	C252.403427,335.204742 269.783020,335.130615 287.162506,335.149811 
	C288.780548,335.151611 290.397919,335.744476 292.419586,336.138977 
z"/>
<path fill="#F8F6F8" opacity="1.000000" stroke="none" 
	d="
M169.628891,242.946655 
	C175.608368,243.962906 178.420319,246.520493 178.300049,250.866470 
	C178.167084,255.670761 175.504791,258.393829 170.350555,259.084900 
	C165.600540,258.352264 162.569565,255.894424 162.395050,251.358612 
	C162.222595,246.876419 164.806686,244.019852 169.628891,242.946655 
z"/>
<path fill="#F8F6F7" opacity="1.000000" stroke="none" 
	d="
M331.610229,242.886368 
	C336.564789,243.715317 339.678986,246.334549 339.629822,251.134506 
	C339.586395,255.373184 337.018799,258.139801 332.327454,259.068787 
	C327.191742,258.582306 323.791534,256.266632 323.718140,251.134155 
	C323.649506,246.332794 326.560760,243.691864 331.610229,242.886368 
z"/>
</svg>